<?xml version="1.0" encoding="UTF-8" standalone="no"?>
<svg width="171px" height="40px" viewBox="0 0 171 40" version="1.1" xmlns="http://www.w3.org/2000/svg" xmlns:xlink="http://www.w3.org/1999/xlink">
    <!-- Generator: Sketch 50.1 (55044) - http://www.bohemiancoding.com/sketch -->
    <title>2-stars</title>
    <desc>Created with Sketch.</desc>
    <defs></defs>
    <g id="Article_templates" stroke="none" stroke-width="1" fill="none" fill-rule="evenodd">
        <g id="4-stars">
            <rect id="Rectangle-3" fill="#FFF000" x="0" y="0" width="171" height="40"></rect>
            <polygon id="Star" fill="#121212" points="26.4515366 31.2258065 23.5933806 22.0645161 31 16.3548387 30.6312057 15.1290323 21.4728132 15.1290323 18.6453901 6 17.3546099 6 14.5579196 15.1290323 5.36879433 15.1290323 5 16.3548387 12.4066194 22.0645161 9.60992908 31.2258065 10.5626478 32 18 26.2903226 25.4373522 32"></polygon>
            <path d="M59.8700148,31.0406879 L57.0123832,21.8810785 L64.4219815,16.1691047 L64.2594961,15.6290323 L55.1042399,15.6290323 L52.2768167,6.5 L51.724371,6.5 L48.9276807,15.6290323 L39.7405039,15.6290323 L39.5780185,16.1691047 L46.9858197,21.8796931 L44.1863854,31.049972 L44.5714567,31.3628867 L52,25.6599719 L59.4382132,31.3703103 L59.8700148,31.0406879 Z" id="Star" stroke="#121212" fill="#121212"></path>
            <path d="M92.8700148,31.0406879 L90.0123832,21.8810785 L97.4219815,16.1691047 L97.2594961,15.6290323 L88.1042399,15.6290323 L85.2768167,6.5 L84.724371,6.5 L81.9276807,15.6290323 L72.7405039,15.6290323 L72.5780185,16.1691047 L79.9858197,21.8796931 L77.1863854,31.049972 L77.5714567,31.3628867 L85,25.6599719 L92.4382132,31.3703103 L92.8700148,31.0406879 Z" id="Star-Copy" stroke="#121212"></path>
            <path d="M125.870015,31.0406879 L123.012383,21.8810785 L130.421981,16.1691047 L130.259496,15.6290323 L121.10424,15.6290323 L118.276817,6.5 L117.724371,6.5 L114.927681,15.6290323 L105.740504,15.6290323 L105.578019,16.1691047 L112.98582,21.8796931 L110.186385,31.049972 L110.571457,31.3628867 L118,25.6599719 L125.438213,31.3703103 L125.870015,31.0406879 Z" id="Star-Copy" stroke="#121212"></path>
            <path d="M160.870015,31.0406879 L158.012383,21.8810785 L165.421981,16.1691047 L165.259496,15.6290323 L156.10424,15.6290323 L153.276817,6.5 L152.724371,6.5 L149.927681,15.6290323 L140.740504,15.6290323 L140.578019,16.1691047 L147.98582,21.8796931 L145.186385,31.049972 L145.571457,31.3628867 L153,25.6599719 L160.438213,31.3703103 L160.870015,31.0406879 Z" id="Star-Copy-3" stroke="#121212"></path>
        </g>
    </g>
</svg>