<?xml version="1.0" encoding="UTF-8" standalone="no"?>
<svg width="171px" height="40px" viewBox="0 0 171 40" version="1.1" xmlns="http://www.w3.org/2000/svg" xmlns:xlink="http://www.w3.org/1999/xlink">
    <!-- Generator: Sketch 50.1 (55044) - http://www.bohemiancoding.com/sketch -->
    <title>4-stars</title>
    <desc>Created with Sketch.</desc>
    <defs></defs>
    <g id="Article_templates" stroke="none" stroke-width="1" fill="none" fill-rule="evenodd">
        <g id="2-stars">
            <rect id="Rectangle-3" fill="#FFF000" x="0" y="0" width="171" height="40"></rect>
            <polygon id="Star" fill="#121212" points="26.4515366 31.2258065 23.5933806 22.0645161 31 16.3548387 30.6312057 15.1290323 21.4728132 15.1290323 18.6453901 6 17.3546099 6 14.5579196 15.1290323 5.36879433 15.1290323 5 16.3548387 12.4066194 22.0645161 9.60992908 31.2258065 10.5626478 32 18 26.2903226 25.4373522 32"></polygon>
            <polygon id="Star" fill="#121212" points="60.4515366 31.2258065 57.5933806 22.0645161 65 16.3548387 64.6312057 15.1290323 55.4728132 15.1290323 52.6453901 6 51.3546099 6 48.5579196 15.1290323 39.3687943 15.1290323 39 16.3548387 46.4066194 22.0645161 43.6099291 31.2258065 44.5626478 32 52 26.2903226 59.4373522 32"></polygon>
            <polygon id="Star-Copy" fill="#121212" points="93.4515366 31.2258065 90.5933806 22.0645161 98 16.3548387 97.6312057 15.1290323 88.4728132 15.1290323 85.6453901 6 84.3546099 6 81.5579196 15.1290323 72.3687943 15.1290323 72 16.3548387 79.4066194 22.0645161 76.6099291 31.2258065 77.5626478 32 85 26.2903226 92.4373522 32"></polygon>
            <polygon id="Star-Copy" fill="#121212" points="126.451537 31.2258065 123.593381 22.0645161 131 16.3548387 130.631206 15.1290323 121.472813 15.1290323 118.64539 6 117.35461 6 114.55792 15.1290323 105.368794 15.1290323 105 16.3548387 112.406619 22.0645161 109.609929 31.2258065 110.562648 32 118 26.2903226 125.437352 32"></polygon>
            <path d="M160.870015,31.0406879 L158.012383,21.8810785 L165.421981,16.1691047 L165.259496,15.6290323 L156.10424,15.6290323 L153.276817,6.5 L152.724371,6.5 L149.927681,15.6290323 L140.740504,15.6290323 L140.578019,16.1691047 L147.98582,21.8796931 L145.186385,31.049972 L145.571457,31.3628867 L153,25.6599719 L160.438213,31.3703103 L160.870015,31.0406879 Z" id="Star-Copy-3" stroke="#121212"></path>
        </g>
    </g>
</svg>