<?xml version="1.0" standalone="no"?>
<!DOCTYPE svg PUBLIC "-//W3C//DTD SVG 1.1//EN" "http://www.w3.org/Graphics/SVG/1.1/DTD/svg11.dtd" >
<svg xmlns="http://www.w3.org/2000/svg" xmlns:xlink="http://www.w3.org/1999/xlink" version="1.1">
<metadata></metadata>
<defs>
<font id="volvo_broad_webregular" horiz-adv-x="772" >
<font-face units-per-em="2048" ascent="1536" descent="-512" />
<missing-glyph horiz-adv-x="409" />
<glyph horiz-adv-x="0" />
<glyph horiz-adv-x="0" />
<glyph unicode="&#xd;" horiz-adv-x="409" />
<glyph unicode=" "  horiz-adv-x="409" />
<glyph unicode="&#x09;" horiz-adv-x="409" />
<glyph unicode="&#xa0;" horiz-adv-x="409" />
<glyph unicode="!" horiz-adv-x="372" d="M61 1354q-2 49 14.5 70.5t51.5 21.5h115q41 0 55 -20.5t14 -73.5l-8 -889q0 -51 -14.5 -69.5t-50.5 -18.5h-91q-39 0 -54 17.5t-17 70.5zM66 98v60q0 53 10 75.5t57 22.5h113q45 0 55 -22.5t10 -75.5v-60q0 -53 -10 -75.5t-55 -22.5h-113q-47 0 -57 22.5t-10 75.5z" />
<glyph unicode="&#x22;" horiz-adv-x="540" d="M14 1384q-4 29 8.5 45.5t34.5 16.5h136q25 0 37 -18.5t8 -43.5l-43 -290q-4 -31 -14.5 -38t-33.5 -7h-43q-23 0 -33 7t-14 38zM303 1384q-4 25 8.5 43.5t36.5 18.5h137q23 0 34 -16.5t7 -45.5l-41 -290q-4 -31 -15 -38t-32 -7h-43q-23 0 -34 7t-15 38z" />
<glyph unicode="#" horiz-adv-x="1382" d="M0 483l20 64q10 29 19.5 41t38.5 12h260l78 248h-246q-57 0 -41 53l21 64q10 29 20 42t39 13h264l125 393q8 27 23.5 33t46.5 6h65q61 0 45 -57l-119 -375h252l127 393q8 27 23.5 33t46.5 6h66q61 0 45 -57l-121 -375h245q53 0 39 -53l-20 -66q-8 -29 -18.5 -41 t-38.5 -12h-261l-79 -248h247q57 0 41 -53l-20 -64q-10 -29 -20.5 -43t-38.5 -14h-265l-123 -387q-8 -27 -24.5 -33t-46.5 -6h-66q-61 0 -45 53l119 373h-252l-125 -387q-8 -27 -24.5 -33t-47.5 -6h-63q-63 0 -47 53l121 373h-246q-57 0 -39 57zM524 600h254l80 248h-256z " />
<glyph unicode="$" horiz-adv-x="638" d="M23 1145q0 125 51 179t157 60v109q0 41 31 41h100q16 0 22.5 -6t6.5 -29v-115h105q31 0 44 -15t13 -56v-86q0 -43 -14.5 -59.5t-49.5 -16.5h-176q-49 0 -59 -37t14 -80l215 -395q39 -74 63.5 -126t37 -94t16.5 -78t4 -73q0 -119 -57.5 -165t-155.5 -46v-116q0 -29 -5 -37 t-21 -8h-105q-18 0 -23.5 7t-5.5 34v120h-139q-39 0 -51 15.5t-12 66.5v70q0 51 12 66.5t49 15.5h207q45 0 51 32.5t-10 63.5l-223 426q-33 61 -51.5 110.5t-27.5 89.5t-11 71.5t-2 60.5z" />
<glyph unicode="%" horiz-adv-x="1202" d="M12 1079q0 100 9.5 173t37 120t78.5 69.5t133 22.5t133.5 -22.5t79 -69.5t36.5 -119.5t9 -173.5q0 -113 -12 -190.5t-42 -126.5t-80 -70.5t-124 -21.5t-123 21.5t-78.5 70.5t-43 127t-13.5 190zM209 1069q0 -80 2 -127t8 -71.5t18 -30.5t35 -6t35 6t18.5 30.5t7.5 71.5 t1 127q0 74 -1 119t-7.5 68.5t-18.5 31.5t-35 8t-35 -8t-18 -31.5t-8 -68.5t-2 -119zM308 6q-7 10 3 39l428 1368q8 23 15.5 29t31.5 6h66q23 0 36 -7t3 -36l-436 -1376q-6 -20 -13.5 -26.5t-23.5 -6.5h-72q-31 0 -38 10zM674 391q0 100 9 173t37 120t79 70.5t133 23.5 t133 -23.5t78.5 -70.5t37 -119.5t9.5 -173.5q0 -113 -13.5 -190.5t-43 -126.5t-78.5 -70.5t-123 -21.5t-123 21.5t-80 70.5t-43 127t-12 190zM868 381q0 -80 2 -127t8.5 -70.5t19.5 -30t36 -6.5t35 6.5t18 30t7 70.5t1 127q0 74 -1 119t-7 68.5t-18.5 31.5t-34.5 8 q-23 0 -36 -8t-19.5 -31.5t-8.5 -68.5t-2 -119z" />
<glyph unicode="&#x26;" horiz-adv-x="854" d="M37 446q0 88 7 145.5t23.5 94.5t42 55.5t60.5 28.5q-29 10 -51.5 28.5t-37.5 57.5t-24.5 102.5t-9.5 165.5q0 117 22.5 181.5t60.5 95.5t85 38t96 7h322q76 0 76 -72v-114q0 -37 -18.5 -53.5t-65.5 -16.5h-246q-84 0 -84 -74v-149q0 -43 20.5 -63.5t67.5 -20.5h96v41 q0 29 14.5 48t51.5 19h123q68 0 67 -65v-45h41q41 0 54.5 -15.5t13.5 -50.5v-123q0 -41 -15.5 -55t-48.5 -14h-45v-220q0 -121 -10 -200.5t-47 -127.5t-107.5 -67.5t-191.5 -19.5q-113 0 -180.5 26.5t-103.5 83t-47 143.5t-11 205zM295 338q0 -41 18.5 -66.5t71.5 -25.5 q57 0 75.5 23.5t18.5 72.5v285h-121q-29 0 -46 -19.5t-17 -54.5v-215z" />
<glyph unicode="'" horiz-adv-x="251" d="M14 1384q-4 29 8.5 45.5t34.5 16.5h136q23 0 35 -18.5t8 -43.5l-43 -290q-4 -31 -13.5 -38t-34.5 -7h-43q-23 0 -33 7t-16 38z" />
<glyph unicode="(" horiz-adv-x="350" d="M41 702q0 117 7 218.5t20.5 196.5t31 187.5t37.5 188.5q10 45 22.5 57.5t49.5 12.5h61q35 0 44.5 -10.5t0.5 -57.5q-12 -96 -21 -188.5t-15.5 -187.5t-9.5 -197.5t-3 -219.5t3 -220t9.5 -198.5t15.5 -187.5t21 -186q8 -47 -1 -57.5t-44 -10.5h-61q-37 0 -49.5 12.5 t-22.5 57.5q-20 96 -37.5 188.5t-31 187.5t-20.5 196.5t-7 217.5z" />
<glyph unicode=")" horiz-adv-x="350" d="M35 -90q12 94 21.5 186t15.5 187.5t9 199t3 219.5q0 117 -3 219.5t-9 197.5t-15.5 187.5t-21.5 188.5q-6 47 2 57.5t43 10.5h63q35 0 48.5 -12.5t23.5 -57.5q20 -96 37.5 -188.5t30 -187.5t19.5 -196.5t7 -218.5t-7 -218t-19.5 -196t-29.5 -187.5t-38 -188.5 q-10 -45 -23.5 -57.5t-48.5 -12.5h-63q-35 0 -43 10.5t-2 57.5z" />
<glyph unicode="*" horiz-adv-x="454" d="M1 1117q1 9 24 20l133 65l-133 68q-20 10 -22.5 21.5t3.5 21.5l17 26q8 12 17 15.5t30 -8.5l123 -84l-11 147q-2 41 31 41h27q18 0 25 -8t5 -35l-8 -145l121 81q18 12 29.5 10.5t21.5 -16.5l15 -24q10 -14 5 -25.5t-30 -21.5l-127 -64l129 -61q41 -20 23 -49l-15 -23 q-10 -16 -20.5 -18t-32.5 12l-119 80l8 -148q2 -23 -6 -30t-22 -7h-29q-16 0 -24.5 7.5t-6.5 29.5l11 148l-123 -84q-20 -12 -29.5 -8t-15.5 16l-17 25q-8 16 -7 25z" />
<glyph unicode="+" horiz-adv-x="931" d="M14 692v109q0 51 14.5 69.5t53.5 18.5h244v235q0 33 14 51.5t68 18.5h110q51 0 68.5 -13.5t17.5 -54.5v-237h246q39 0 53.5 -18.5t14.5 -69.5v-109q0 -53 -18.5 -68.5t-51.5 -15.5h-244v-248q0 -41 -17.5 -54t-68.5 -13h-110q-53 0 -67.5 18.5t-14.5 50.5v246h-242 q-33 0 -51.5 15.5t-18.5 68.5z" />
<glyph unicode="," horiz-adv-x="303" d="M25 53v105q0 53 10 75.5t55 22.5h123q45 0 55.5 -22.5t10.5 -75.5v-68q0 -16 -3.5 -38.5t-19.5 -63.5l-41 -111q-16 -43 -45 -43h-104q-23 0 -27 8t4 29l39 92q12 27 5 32t-15 5h-13q-35 0 -34 53z" />
<glyph unicode="-" horiz-adv-x="456" d="M23 711v108q0 53 13 70.5t54 17.5h277q41 0 55 -17.5t14 -70.5v-108q0 -53 -14 -70.5t-55 -17.5h-277q-41 0 -54 17t-13 71z" />
<glyph unicode="." horiz-adv-x="303" d="M25 98v60q0 53 10 75.5t55 22.5h123q45 0 55.5 -22.5t10.5 -75.5v-60q0 -53 -10.5 -75.5t-55.5 -22.5h-123q-45 0 -55 22.5t-10 75.5z" />
<glyph unicode="/" horiz-adv-x="415" d="M14 10l226 1430q10 45 43 45h96q18 0 22.5 -13.5t-0.5 -41.5l-225 -1428q-6 -45 -41 -45h-98q-18 0 -22.5 12.5t-0.5 40.5z" />
<glyph unicode="0" horiz-adv-x="753" d="M37 721q0 227 11 371.5t47 226.5t103.5 111.5t178.5 29.5t178.5 -29.5t103 -111.5t47 -226.5t11.5 -371.5t-11.5 -371.5t-47 -226.5t-103 -112.5t-178.5 -30.5t-178.5 30.5t-103.5 112.5t-47 226.5t-11 371.5zM291 721q0 -164 2 -257t11 -139t26.5 -57.5t46.5 -11.5 t46 11.5t26.5 57.5t11.5 139t2 257q0 166 -2 259t-11.5 140t-26.5 58.5t-46 11.5t-46.5 -11.5t-26.5 -58.5t-11 -140t-2 -259z" />
<glyph unicode="1" horiz-adv-x="436" d="M25 1274v74q0 63 15 80.5t73 17.5h184q45 0 58.5 -18.5t13.5 -77.5v-1258q0 -57 -13.5 -74.5t-62.5 -17.5h-109q-45 0 -58 17.5t-13 74.5v1053q0 29 -5.5 37t-21.5 8h-14q-31 0 -39 15.5t-8 68.5z" />
<glyph unicode="2" horiz-adv-x="620" d="M8 92v129q0 49 10.5 104.5t28.5 92.5l223 442q23 45 40.5 89t17.5 118q0 70 -21.5 96.5t-60.5 26.5h-125q-27 0 -43.5 3t-24.5 12t-11 26.5t-3 46.5v78q0 53 14.5 71.5t59.5 18.5h256q127 0 172 -90q23 -47 33 -120t10 -169q0 -76 -15.5 -138.5t-52.5 -137.5l-246 -492 q-23 -43 17 -43h248q39 0 54 -16.5t15 -65.5v-86q0 -51 -15.5 -69.5t-62.5 -18.5h-446q-43 0 -57.5 19.5t-14.5 72.5z" />
<glyph unicode="3" horiz-adv-x="610" d="M6 88v74q0 55 15.5 74.5t56.5 19.5h172q25 0 40 5t24.5 23.5t13.5 52.5t4 89q0 82 -15.5 122t-54.5 40h-117q-41 0 -53 16.5t-12 73.5v84q0 63 39 94q37 29 65.5 50.5t48.5 37.5q23 18 41 31q31 23 44.5 54.5t13.5 62.5q0 41 -18.5 69.5t-51.5 28.5h-176 q-43 0 -57.5 15.5t-14.5 66.5v78q0 57 14.5 76.5t57.5 19.5h252q59 0 104 -15.5t75 -55.5t45.5 -108.5t15.5 -176.5q0 -115 -33 -190t-94 -103q39 -33 53 -48.5t31 -37.5q14 -23 24 -47.5t17.5 -58.5t10.5 -79t3 -110q0 -115 -14.5 -194t-46 -128t-84 -71.5t-126.5 -22.5 h-241q-43 0 -57.5 15.5t-14.5 72.5z" />
<glyph unicode="4" horiz-adv-x="763" d="M12 453v133q0 41 35 137t100 268q59 160 107.5 266.5t73.5 149.5q14 27 35.5 33t50.5 6h170q72 0 71 -94v-686q0 -12 1 -27.5t28 -15.5h27q27 0 36 -16.5t9 -61.5v-107q0 -70 -41 -69h-31q-18 0 -25.5 -10.5t-7.5 -43.5v-229q0 -53 -14 -69.5t-55 -16.5h-117 q-41 0 -54.5 16.5t-13.5 69.5v236q0 29 -7 38t-42 9h-266q-37 0 -53.5 18.5t-16.5 65.5zM263 637q1 -14 22 -14h82q16 0 23 11t7 42v297q0 27 -14 26q-10 0 -14 -16l-99 -309q-8 -23 -7 -37z" />
<glyph unicode="5" horiz-adv-x="614" d="M14 92v74q0 57 14.5 73.5t59.5 16.5h170q41 0 60.5 46t19.5 151q0 109 -18.5 153.5t-61.5 44.5h-147q-47 0 -61.5 14.5t-14.5 51.5v629q0 57 15.5 78.5t55.5 21.5h406q41 0 56.5 -20.5t15.5 -73.5v-74q0 -51 -15.5 -69.5t-52.5 -18.5h-192q-20 0 -26.5 -8t-6.5 -37v-199 q0 -39 28 -39h43q53 0 97.5 -20.5t68.5 -55.5q20 -29 35 -60.5t23 -76.5t12 -104.5t4 -143.5q0 -240 -59.5 -343t-190.5 -103h-264q-47 0 -60.5 16.5t-13.5 75.5z" />
<glyph unicode="6" horiz-adv-x="710" d="M23 532q0 111 4 196t19 159t43 141.5t77 145.5l147 237q10 14 18.5 24.5t33.5 10.5h217q37 0 36 -31q0 -14 -16 -41l-250 -413q20 8 48 12t53 4q59 0 102 -15.5t74 -54.5q16 -20 27.5 -52t18.5 -79t10 -112.5t3 -155.5q0 -127 -10 -235.5t-39 -170.5q-29 -61 -91.5 -86.5 t-178.5 -25.5q-74 0 -123 5t-81 18.5t-53.5 34t-39.5 50.5q-16 25 -25.5 70t-14.5 102.5t-7 125t-2 136.5zM279 356q0 -61 17 -80.5t64 -19.5q41 0 56.5 19.5t15.5 76.5v277q0 53 -15.5 67.5t-64.5 14.5q-41 0 -57 -16.5t-16 -73.5v-265z" />
<glyph unicode="7" horiz-adv-x="624" d="M10 1280v76q0 55 14.5 72.5t59.5 17.5h461q39 0 53 -20.5t14 -71.5v-166q0 -33 -5 -65.5t-9 -53.5l-246 -1001q-8 -35 -20.5 -51.5t-46.5 -16.5h-146q-27 0 -40 11.5t-13 39.5q0 25 10 53l252 990q6 23 10 42t4 29q0 16 -7 20.5t-21 4.5h-246q-49 0 -63.5 15.5 t-14.5 74.5z" />
<glyph unicode="8" horiz-adv-x="735" d="M27 444q0 162 28.5 241t98.5 110q-59 20 -86 90.5t-27 212.5q0 94 11 161.5t46 110.5t98.5 63.5t170.5 20.5q104 0 168.5 -20.5t100.5 -63.5t47 -110.5t11 -161.5q0 -141 -26.5 -212t-85.5 -91q70 -31 98.5 -110t28.5 -241q0 -119 -11.5 -204.5t-47.5 -141t-103.5 -82 t-179.5 -26.5q-113 0 -179.5 26.5t-102.5 82t-47 141.5t-11 204zM285 993q0 -51 15 -69.5t65 -18.5q45 0 61 19.5t16 68.5v107q0 51 -16 70.5t-61 19.5q-47 0 -63.5 -19.5t-16.5 -66.5v-111zM287 315q0 -29 16 -44t64 -15q41 0 58 14.5t17 48.5v228q0 49 -15 65.5t-65 16.5 q-47 0 -61 -18.5t-14 -65.5v-230z" />
<glyph unicode="9" horiz-adv-x="710" d="M23 936q0 127 10 235.5t39 169.5t91 87t179 26q70 0 118 -6t80.5 -19.5t55 -34t43.5 -48.5q33 -47 41 -155t8 -261q0 -96 -4 -180t-16.5 -160t-37 -145.5t-65.5 -137.5l-166 -272q-10 -16 -18 -25.5t-33 -9.5h-215q-20 0 -27.5 9t-7.5 22q0 10 2 17t11 24l251 415 q-23 -12 -45 -17t-59 -5q-47 0 -94 14.5t-82 55.5q-18 20 -29.5 51.5t-17.5 80t-9 114t-3 155.5zM276 815q0 -53 15.5 -67.5t64.5 -14.5q41 0 58.5 16.5t17.5 73.5v264q0 59 -18.5 80t-65.5 21q-41 0 -56.5 -20.5t-15.5 -77.5v-275z" />
<glyph unicode=":" horiz-adv-x="303" d="M25 98v60q0 53 10 75.5t55 22.5h123q45 0 55.5 -22.5t10.5 -75.5v-60q0 -53 -10.5 -75.5t-55.5 -22.5h-123q-45 0 -55 22.5t-10 75.5zM25 668v59q0 53 10 75.5t55 22.5h123q45 0 55.5 -22.5t10.5 -75.5v-59q0 -53 -10.5 -76t-55.5 -23h-123q-45 0 -55 22.5t-10 76.5z" />
<glyph unicode=";" horiz-adv-x="303" d="M25 53v105q0 53 10 75.5t55 22.5h123q45 0 55.5 -22.5t10.5 -75.5v-68q0 -16 -3.5 -38.5t-19.5 -63.5l-41 -111q-16 -43 -45 -43h-104q-23 0 -27 8t4 29l39 92q12 27 5 32t-15 5h-13q-35 0 -34 53zM25 668v59q0 53 10 75.5t55 22.5h123q45 0 55.5 -22.5t10.5 -75.5v-59 q0 -53 -10.5 -76t-55.5 -23h-123q-45 0 -55 22.5t-10 76.5z" />
<glyph unicode="&#x3c;" horiz-adv-x="743" d="M23 436v113q0 23 3 34t11 19t18.5 13.5t26.5 15.5l553 350q45 29 63.5 22.5t20.5 -47.5l2 -90q2 -41 -6 -63.5t-49 -48.5l-416 -262l416 -263q37 -25 47 -48t8 -66l-2 -86q-2 -43 -20.5 -49.5t-63.5 22.5l-553 350q-16 10 -26.5 15.5t-18.5 13.5t-11 20.5t-3 34.5z" />
<glyph unicode="=" horiz-adv-x="815" d="M23 272v62q0 53 10 75.5t55 22.5h637q47 0 57.5 -22.5t10.5 -75.5v-62q0 -53 -10.5 -74.5t-57.5 -21.5h-637q-45 0 -55 21.5t-10 74.5zM23 662v59q0 53 10 75.5t55 22.5h637q47 0 57.5 -22.5t10.5 -75.5v-59q0 -53 -10.5 -76t-57.5 -23h-637q-45 0 -55 22.5t-10 76.5z " />
<glyph unicode="&#x3e;" horiz-adv-x="743" d="M23 115q-2 43 8 66.5t47 47.5l416 263l-416 262q-41 27 -49.5 49t-5.5 63l2 90q2 41 20 47.5t64 -22.5l553 -350q14 -10 25 -15.5t19.5 -13.5t11.5 -19.5t3 -33.5v-113q0 -23 -3 -35t-11.5 -20t-19.5 -13.5t-25 -15.5l-553 -350q-45 -29 -63.5 -22.5t-20.5 49.5z" />
<glyph unicode="?" horiz-adv-x="581" d="M14 1280v74q0 92 72 92h260q55 0 94 -10.5t65.5 -42t39 -91t12.5 -155.5q0 -45 -2 -80t-8 -66.5t-17.5 -63.5t-29.5 -71l-84 -178q-14 -31 -17.5 -49t-3.5 -64v-139q0 -39 -15 -51t-52 -12h-109q-43 0 -57.5 16.5t-14.5 63.5v196q0 45 3.5 63.5t19.5 49.5l84 178 q18 37 27.5 59.5t13.5 40t5 31.5t1 37q0 43 -14.5 62.5t-57.5 19.5h-143q-72 0 -72 90zM147 98v60q0 53 10.5 75.5t57.5 22.5h113q45 0 56 -22.5t11 -75.5v-60q0 -53 -11 -75.5t-56 -22.5h-113q-47 0 -57.5 22.5t-10.5 75.5z" />
<glyph unicode="@" horiz-adv-x="1048" d="M35 651q0 170 33.5 310.5t101.5 239.5t169 154.5t234 55.5q113 0 196 -43t138.5 -120t83 -182t27.5 -232q0 -117 -25.5 -214.5t-68.5 -168t-101.5 -109.5t-126.5 -39q-41 0 -66.5 25.5t-35.5 56.5q-25 -35 -59.5 -57.5t-77.5 -22.5q-41 0 -74 23.5t-56.5 63.5t-37 93.5 t-13.5 112.5q0 88 17.5 171t51.5 146.5t81 102.5t109 39q31 0 53 -17.5t37 -42.5q6 14 17 26.5t28 12.5h63q29 0 35 -18.5t6 -40.5q0 -12 -2 -29.5t-4 -34.5l-51 -368q-2 -10 -2 -21.5v-21.5t5 -24.5t21 -14.5t36 22.5t36 69.5t26.5 116.5t10.5 166.5q0 184 -70.5 293.5 t-210.5 109.5q-92 0 -159.5 -46t-111.5 -126t-66.5 -187.5t-22.5 -230.5q0 -145 24.5 -239.5t68.5 -150.5t103.5 -78.5t129.5 -22.5q72 0 150.5 14t145.5 39q8 4 21 4q18 0 31 -31l22 -82q6 -18 6 -24q0 -14 -14 -24.5t-78 -26.5q-59 -16 -134 -26.5t-161 -10.5 q-231 0 -360 158.5t-129 500.5zM444 598q0 -84 12.5 -109.5t39.5 -25.5q41 0 73.5 76.5t32.5 238.5q0 68 -13.5 96.5t-41.5 28.5q-35 0 -69 -76.5t-34 -228.5z" />
<glyph unicode="A" horiz-adv-x="804" d="M6 33l176 1329q6 47 25.5 65.5t64.5 18.5h252q39 0 58.5 -19.5t25.5 -66.5l189 -1327q6 -33 -33 -33h-205q-16 0 -24.5 8t-12.5 31l-41 305q-4 23 -11 29t-26 6h-92q-16 0 -24.5 -6t-12.5 -29l-32 -309q-4 -23 -11.5 -29t-29.5 -6h-199q-39 0 -37 33zM342 659 q0 -25 29 -24h53q33 0 31 24l-41 498q-2 33 -17 33q-16 0 -18 -35z" />
<glyph unicode="B" horiz-adv-x="782" d="M57 96v1256q0 53 14.5 73.5t53.5 20.5h393q70 0 112 -28.5t64.5 -78t30.5 -116t8 -142.5q0 -137 -27.5 -212.5t-91.5 -114.5q68 -27 103 -119t35 -246q0 -84 -10.5 -154.5t-37 -123t-71.5 -82t-115 -29.5h-393q-41 0 -54.5 19.5t-13.5 76.5zM309 299q0 -23 7.5 -33 t29.5 -10h41q33 0 53.5 8t32.5 28.5t16.5 55.5t4.5 88q0 57 -6.5 94t-19.5 56.5t-33.5 27t-47.5 7.5h-41q-23 0 -30 -9.5t-7 -36.5v-276zM309 920q0 -25 7.5 -35.5t29.5 -10.5h41q59 0 75.5 34t16.5 124q0 51 -6 82t-18.5 47.5t-29.5 22.5t-38 6h-41q-23 0 -30 -8t-7 -35 v-227z" />
<glyph unicode="C" horiz-adv-x="628" d="M37 696q0 217 5 361.5t29.5 230.5t75 122t140.5 36h268q37 0 52.5 -17.5t15.5 -58.5v-98q0 -51 -14.5 -66.5t-57.5 -15.5h-166q-31 0 -48.5 -9.5t-26.5 -55.5t-11 -140t-2 -266q0 -170 3 -263.5t11 -137.5t24.5 -53t45.5 -9h170q39 0 54.5 -16.5t15.5 -57.5v-104 q0 -43 -15.5 -60.5t-50.5 -17.5h-258q-82 0 -133 27.5t-79 104.5t-38 213t-10 351z" />
<glyph unicode="D" horiz-adv-x="792" d="M57 92v1256q0 53 14.5 75.5t53.5 22.5h371q90 0 142 -38t77.5 -124t33 -224t7.5 -337q0 -236 -10.5 -378t-40 -219t-83 -101.5t-139.5 -24.5h-350q-47 0 -61.5 16.5t-14.5 75.5zM303 313q0 -20 2 -31.5t10.5 -17.5t23.5 -7t44 -1q39 0 62.5 8t35 51t14.5 133.5t3 253.5 q0 180 -2 279.5t-13.5 146t-36 54.5t-69.5 8q-47 0 -60.5 -10.5t-13.5 -55.5v-811z" />
<glyph unicode="E" horiz-adv-x="651" d="M57 96v1254q0 53 15.5 74.5t56.5 21.5h430q41 0 55.5 -16.5t14.5 -69.5v-80q0 -53 -14.5 -71.5t-55.5 -18.5h-213q-25 0 -32 -9.5t-7 -37.5v-203q0 -31 5 -38t34 -7h109q35 0 49 -14.5t14 -59.5v-110q0 -41 -14.5 -56.5t-48.5 -15.5h-109q-23 0 -31 -6t-8 -27v-303 q0 -27 8.5 -37t36.5 -10h215q45 0 61.5 -20.5t16.5 -73.5v-70q0 -49 -16.5 -70.5t-57.5 -21.5h-442q-43 0 -57.5 19.5t-14.5 76.5z" />
<glyph unicode="F" horiz-adv-x="622" d="M57 90v1256q0 59 14.5 79.5t55.5 20.5h412q43 0 59 -20.5t16 -73.5v-76q0 -49 -14 -67.5t-51 -18.5h-201q-27 0 -33 -10.5t-6 -49.5v-196q0 -23 6.5 -31t22.5 -8h121q41 0 53 -17.5t12 -68.5v-76q0 -53 -13 -73.5t-54 -20.5h-109q-27 0 -33 -10.5t-6 -44.5v-494 q0 -51 -13 -70.5t-48 -19.5h-123q-41 0 -54.5 18.5t-13.5 71.5z" />
<glyph unicode="G" d="M37 717q0 178 5 314t27.5 228.5t73 139.5t142.5 47h293q41 0 57 -16.5t16 -75.5v-70q0 -53 -13 -73.5t-52 -20.5h-158q-49 0 -75.5 -8t-39 -53.5t-15.5 -142.5t-3 -275v-316q0 -78 32.5 -108.5t82.5 -30.5q45 0 74.5 28.5t29.5 86.5v213q0 33 -5 44t-22 11h-63 q-29 0 -34 17.5t-5 50.5v100q0 47 13.5 67.5t66.5 20.5h207q41 0 54 -23.5t13 -72.5v-375q0 -102 -10 -182t-45 -134.5t-101.5 -83t-176.5 -28.5q-139 0 -214 44t-110 133t-40 224t-5 320z" />
<glyph unicode="H" horiz-adv-x="819" d="M57 96v1256q0 53 15.5 73.5t54.5 20.5h119q35 0 49 -22.5t14 -69.5v-418q0 -27 8.5 -34t24.5 -7h135q16 0 24.5 7t8.5 34v418q0 47 14.5 69.5t48.5 22.5h119q39 0 54.5 -20.5t15.5 -73.5v-1256q0 -55 -14.5 -75.5t-55.5 -20.5h-117q-41 0 -53 22.5t-12 69.5v502 q0 27 -7 36t-28 9h-131q-23 0 -29 -9t-6 -36v-502q0 -47 -12 -69.5t-55 -22.5h-115q-41 0 -55.5 20.5t-14.5 75.5z" />
<glyph unicode="I" horiz-adv-x="368" d="M57 96v1252q0 57 14.5 77.5t55.5 20.5h119q37 0 51 -21.5t14 -76.5v-1258q0 -59 -15 -74.5t-56 -15.5h-107q-47 0 -61.5 18.5t-14.5 77.5z" />
<glyph unicode="J" horiz-adv-x="501" d="M6 88v82q0 57 15.5 71.5t54.5 14.5h57q35 0 51.5 17.5t16.5 76.5v1004q0 55 14 73.5t59 18.5h109q47 0 60.5 -18.5t13.5 -71.5v-985q0 -76 -10.5 -137.5t-38.5 -114.5q-35 -61 -86.5 -90t-133.5 -29h-106q-47 0 -61.5 16.5t-14.5 71.5z" />
<glyph unicode="K" horiz-adv-x="813" d="M57 96v1252q0 57 14.5 77.5t55.5 20.5h119q37 0 51 -21.5t14 -76.5v-324q0 -8 2 -15.5t11 -7.5q8 0 20 23l162 338q20 45 33.5 64.5t48.5 19.5h192q27 0 27 -27q0 -12 -8 -26l-213 -416q-4 -10 -9.5 -21.5t-5.5 -21.5q0 -12 1 -21.5t6 -21.5l219 -825q12 -43 3 -54.5 t-38 -11.5h-176q-29 0 -41.5 12.5t-20.5 50.5l-102 482q-6 29 -10 47t-15 18q-6 0 -11 -2t-11 -10t-16.5 -25.5t-26.5 -50.5q-14 -25 -17.5 -53.5t-3.5 -67.5v-311q0 -59 -15 -74.5t-56 -15.5h-107q-47 0 -61.5 18.5t-14.5 77.5z" />
<glyph unicode="L" horiz-adv-x="602" d="M57 96v1256q0 51 15.5 72.5t54.5 21.5h115q43 0 56 -20.5t13 -73.5v-1051q0 -27 9.5 -36t25.5 -9h176q41 0 57.5 -19.5t16.5 -72.5v-72q0 -49 -19.5 -70.5t-60.5 -21.5h-389q-43 0 -56.5 18.5t-13.5 77.5z" />
<glyph unicode="M" horiz-adv-x="1009" d="M57 92v1264q0 53 13.5 71.5t54.5 18.5h121q51 0 67.5 -10.5t28.5 -57.5l145 -520q6 -20 19 -20q10 0 16 20l146 520q12 47 28.5 57.5t67.5 10.5h121q41 0 55 -18.5t14 -71.5v-1264q0 -59 -13 -75.5t-58 -16.5h-115q-43 0 -56.5 19.5t-13.5 70.5v588v34.5t-10 18.5 q-6 0 -10 -16.5t-8 -32.5l-86 -428q-10 -41 -26.5 -53.5t-51.5 -12.5t-52.5 12.5t-27.5 53.5l-86 428q-4 16 -8 32.5t-10 16.5q-10 0 -10.5 -18.5t-0.5 -34.5v-588q0 -51 -13 -70.5t-56 -19.5h-115q-45 0 -57.5 16.5t-12.5 75.5z" />
<glyph unicode="N" horiz-adv-x="847" d="M57 98v1252q0 57 14.5 76.5t61.5 19.5h98q39 0 53.5 -11.5t30.5 -56.5l183 -536q8 -20 13 -25.5t11 -5.5t8 8t2 33v498q0 51 14.5 73.5t53.5 22.5h113q35 0 56.5 -17.5t21.5 -80.5v-1250q0 -57 -14.5 -77.5t-61.5 -20.5h-101q-39 0 -53 10t-31 58l-182 538 q-6 20 -11 25.5t-11 5.5q-8 0 -10.5 -8t-2.5 -33v-500q0 -51 -13 -73.5t-52 -22.5h-113q-37 0 -57.5 16.5t-20.5 81.5z" />
<glyph unicode="O" d="M37 725q0 162 5 297t38 232.5t103.5 151.5t201.5 54t202.5 -54t104.5 -151.5t38 -232.5t5 -297t-5 -298t-38 -235.5t-104.5 -155.5t-202.5 -56t-201.5 56t-103.5 155.5t-38 235.5t-5 298zM291 725q0 -143 2 -234.5t11 -143.5t27.5 -71.5t53.5 -19.5t54.5 19.5t28.5 71.5 t11 143.5t2 234.5t-2 233.5t-11 141.5t-28.5 69.5t-54.5 18.5t-53.5 -18.5t-27.5 -69.5t-11 -141.5t-2 -233.5z" />
<glyph unicode="P" horiz-adv-x="751" d="M57 92v1254q0 55 14.5 77.5t53.5 22.5h334q137 0 207.5 -117t70.5 -346q0 -217 -62.5 -331.5t-180.5 -114.5h-183v-445q0 -57 -13 -74.5t-56 -17.5h-117q-43 0 -55.5 16.5t-12.5 75.5zM311 829q0 -23 8.5 -29.5t24.5 -6.5h72q16 0 28.5 6t20.5 26.5t12 58.5t4 101 q0 66 -4 107t-13 62.5t-22.5 28.5t-31.5 7h-64q-16 0 -25.5 -6t-9.5 -33v-322z" />
<glyph unicode="Q" d="M37 725q0 162 5 297t37 232.5t102.5 151.5t201.5 54t202.5 -54t104.5 -151.5t38 -232.5t5 -297q0 -104 -1 -199.5t-10 -176.5t-28.5 -147.5t-56.5 -113.5l121 -129q23 -23 20.5 -39t-30.5 -31l-144 -63q-23 -10 -38 -2t-40 39l-92 121q-12 0 -24.5 -2t-26.5 -2 q-131 0 -201.5 56t-102.5 155.5t-37 235.5t-5 298zM289 725q0 -143 2 -234.5t11 -143.5t27.5 -71.5t53.5 -19.5t55.5 19.5t29.5 71.5t11 143.5t2 234.5t-2 233.5t-11 141.5t-29.5 69.5t-55.5 18.5t-53.5 -18.5t-27.5 -69.5t-11 -141.5t-2 -233.5z" />
<glyph unicode="R" horiz-adv-x="759" d="M57 92v1256q0 55 15.5 76.5t56.5 21.5h311q297 0 297 -447q0 -123 -26.5 -197.5t-89.5 -127.5l124 -615q2 -10 3.5 -17t1.5 -11q0 -31 -39 -31h-170q-29 0 -40.5 11.5t-17.5 51.5l-88 521q-4 14 -10 16t-16 2h-31q-10 0 -17.5 -2t-7.5 -18v-492q0 -47 -15 -68.5 t-56 -21.5h-117q-41 0 -54.5 19.5t-13.5 72.5zM313 897q0 -39 23 -39h72q39 0 58 40t19 134q0 92 -19.5 125t-53.5 33h-70q-12 0 -20.5 -9.5t-8.5 -21.5v-262z" />
<glyph unicode="S" horiz-adv-x="659" d="M14 1184q0 147 66.5 204.5t202.5 57.5h247q61 0 62 -78v-96q0 -47 -16.5 -64.5t-51.5 -17.5h-192q-52 0 -64 -41q-3 -12 -4 -25q0 -30 19 -63l233 -426q43 -80 68.5 -137.5t40 -103.5t18.5 -84t4 -79q0 -129 -63.5 -180t-167.5 -51h-324q-41 0 -56.5 17.5t-15.5 70.5v76 q0 57 14.5 74.5t55.5 17.5h223q47 0 57 36q3 12 3 24q0 24 -13 46l-245 461q-37 68 -56.5 121t-30 96t-12.5 78t-2 66z" />
<glyph unicode="T" horiz-adv-x="681" d="M6 1276v74q0 57 15.5 76.5t56.5 19.5h528q41 0 55.5 -19.5t14.5 -68.5v-80q0 -53 -13.5 -70.5t-54.5 -17.5h-112q-16 0 -21.5 -8t-5.5 -35v-1051q0 -57 -14.5 -76.5t-55.5 -19.5h-112q-45 0 -59.5 18.5t-14.5 69.5v1059q0 29 -8 36t-21 7h-112q-39 0 -52.5 16.5 t-13.5 69.5z" />
<glyph unicode="U" horiz-adv-x="784" d="M43 401v949q0 55 16.5 75.5t59.5 20.5h114q41 0 53.5 -18.5t12.5 -71.5v-987q0 -59 21.5 -86t74.5 -27q47 0 68.5 26.5t21.5 88.5v985q0 53 13.5 71.5t56.5 18.5h119q43 0 55 -18.5t12 -71.5v-944q0 -88 -12 -167t-49 -137.5t-106.5 -93t-186.5 -34.5q-109 0 -175.5 28.5 t-104 82.5t-51 132t-13.5 178z" />
<glyph unicode="V" horiz-adv-x="788" d="M6 1386q-4 33 3 46.5t36 13.5h168q27 0 39 -11.5t18 -58.5l105 -823q2 -33 20 -33q16 0 19 33l104 823q6 47 18.5 58.5t38.5 11.5h168q29 0 36 -13.5t3 -46.5l-215 -1327q-4 -35 -16 -47t-41 -12h-231q-29 0 -41.5 12.5t-16.5 46.5z" />
<glyph unicode="W" horiz-adv-x="1198" d="M7 1411q3 16 10.5 23.5t19.5 9.5t26 2h148q27 0 37 -13.5t14 -50.5l103 -704q6 -29 18 -29q10 0 18 29l97 416l-29 274q-4 29 3 53.5t50 24.5h152q29 0 39 -14.5t14 -49.5l86 -702q2 -31 16 -31t19 31l86 709q6 57 49 57h160q31 0 42 -15.5t3 -62.5l-225 -1305 q-6 -35 -19.5 -49t-42.5 -14h-168q-35 0 -46 12.5t-15 53.5l-62 483q-2 8 -3 16t-7 8t-9 -7t-5 -15l-121 -508q-4 -23 -16.5 -33t-40.5 -10h-142q-29 0 -39 10t-14 43l-205 1313q-4 29 -1 45z" />
<glyph unicode="X" horiz-adv-x="741" d="M7 19.5q-7 19.5 3 60.5l144 670l-144 618q-3 17 -3 30q0 48 46 48h166q43 0 55 -60l78 -407q8 -29 19 -29q10 0 16 29l78 407q12 59 57 60h164q48 0 48 -49q0 -13 -3 -29l-145 -618l145 -670q10 -41 3 -60.5t-38 -19.5h-170q-49 0 -57 53l-80 449q-6 27 -18 26 q-12 0 -21 -26l-78 -449q-8 -53 -57 -53h-170q-31 0 -38 19.5z" />
<glyph unicode="Y" horiz-adv-x="745" d="M4 1421.5q6 24.5 41 24.5h145q23 0 35.5 -9.5t22.5 -43.5l110 -469q4 -16 6.5 -20.5t8.5 -4.5t8 4t6 21l111 469q10 35 22 44t35 9h145q35 0 41.5 -24.5t-2.5 -51.5l-239 -817v-461q0 -57 -13.5 -74.5t-58.5 -17.5h-113q-43 0 -56 17.5t-13 74.5v461l-240 817 q-8 27 -2 51.5z" />
<glyph unicode="Z" horiz-adv-x="673" d="M16 86v164v24.5t2 28.5t9.5 39t23.5 57l346 752q8 16 4 27.5t-22 11.5h-270q-25 0 -38.5 3t-21.5 12t-10 26.5t-2 46.5v76q0 55 12 73.5t57 18.5h484q66 0 65 -86v-180q0 -20 -7 -46t-23 -65l-346 -762q-10 -18 -6.5 -34.5t26.5 -16.5h289q41 0 55 -18.5t14 -75.5v-74 q0 -51 -16 -69.5t-63 -18.5h-492q-41 0 -55.5 16.5t-14.5 69.5z" />
<glyph unicode="[" horiz-adv-x="487" d="M57 -66v1528q0 55 14.5 78t53.5 23h260q47 0 57.5 -17.5t10.5 -58.5v-53q0 -37 -10.5 -56.5t-57.5 -19.5h-125v-1315h125q47 0 57.5 -19.5t10.5 -54.5v-51q0 -41 -10.5 -58.5t-57.5 -17.5h-260q-43 0 -55.5 16.5t-12.5 75.5z" />
<glyph unicode="\" horiz-adv-x="407" d="M10 1430q-4 29 0 42t23 13h96q33 0 43 -45l225 -1430q4 -29 0 -41t-22 -12h-99q-35 0 -40 45z" />
<glyph unicode="]" horiz-adv-x="487" d="M35 -31q0 35 10 54.5t57 19.5h125v1315h-125q-47 0 -57 19.5t-10 56.5v53q0 41 10 58.5t57 17.5h260q39 0 54.5 -22.5t15.5 -78.5v-1528q0 -59 -13 -75.5t-57 -16.5h-260q-47 0 -57 17.5t-10 58.5v51z" />
<glyph unicode="^" horiz-adv-x="874" d="M15 741.5q-3 18.5 20 65.5l264 577q8 16 13 27.5t13.5 20t20.5 11.5t35 3h113q23 0 36 -3t21 -11.5t13 -19.5t11 -28l267 -577q20 -47 17 -65.5t-44 -20.5l-90 -2h-36.5t-30 5t-24.5 17.5t-22 34.5l-174 424l-176 -424q-16 -41 -45 -50t-70 -7l-86 2q-43 2 -46 20.5z" />
<glyph unicode="_" horiz-adv-x="780" d="M0 -143h780v-129h-780v129z" />
<glyph unicode="`" horiz-adv-x="339" d="M-25 1681q0 29 31 29h191q16 0 24 -6t25 -29l96 -129q10 -12 10 -26q0 -20 -22 -21h-135q-18 0 -26.5 4t-21.5 17l-149 127q-23 18 -23 34z" />
<glyph unicode="a" horiz-adv-x="804" d="M6 33l176 1329q6 47 25.5 65.5t64.5 18.5h252q39 0 58.5 -19.5t25.5 -66.5l189 -1327q6 -33 -33 -33h-205q-16 0 -24.5 8t-12.5 31l-41 305q-4 23 -11 29t-26 6h-92q-16 0 -24.5 -6t-12.5 -29l-32 -309q-4 -23 -11.5 -29t-29.5 -6h-199q-39 0 -37 33zM342 659 q0 -25 29 -24h53q33 0 31 24l-41 498q-2 33 -17 33q-16 0 -18 -35z" />
<glyph unicode="b" horiz-adv-x="782" d="M57 96v1256q0 53 14.5 73.5t53.5 20.5h393q70 0 112 -28.5t64.5 -78t30.5 -116t8 -142.5q0 -137 -27.5 -212.5t-91.5 -114.5q68 -27 103 -119t35 -246q0 -84 -10.5 -154.5t-37 -123t-71.5 -82t-115 -29.5h-393q-41 0 -54.5 19.5t-13.5 76.5zM309 299q0 -23 7.5 -33 t29.5 -10h41q33 0 53.5 8t32.5 28.5t16.5 55.5t4.5 88q0 57 -6.5 94t-19.5 56.5t-33.5 27t-47.5 7.5h-41q-23 0 -30 -9.5t-7 -36.5v-276zM309 920q0 -25 7.5 -35.5t29.5 -10.5h41q59 0 75.5 34t16.5 124q0 51 -6 82t-18.5 47.5t-29.5 22.5t-38 6h-41q-23 0 -30 -8t-7 -35 v-227z" />
<glyph unicode="c" horiz-adv-x="628" d="M37 696q0 217 5 361.5t29.5 230.5t75 122t140.5 36h268q37 0 52.5 -17.5t15.5 -58.5v-98q0 -51 -14.5 -66.5t-57.5 -15.5h-166q-31 0 -48.5 -9.5t-26.5 -55.5t-11 -140t-2 -266q0 -170 3 -263.5t11 -137.5t24.5 -53t45.5 -9h170q39 0 54.5 -16.5t15.5 -57.5v-104 q0 -43 -15.5 -60.5t-50.5 -17.5h-258q-82 0 -133 27.5t-79 104.5t-38 213t-10 351z" />
<glyph unicode="d" horiz-adv-x="792" d="M57 92v1256q0 53 14.5 75.5t53.5 22.5h371q90 0 142 -38t77.5 -124t33 -224t7.5 -337q0 -236 -10.5 -378t-40 -219t-83 -101.5t-139.5 -24.5h-350q-47 0 -61.5 16.5t-14.5 75.5zM303 313q0 -20 2 -31.5t10.5 -17.5t23.5 -7t44 -1q39 0 62.5 8t35 51t14.5 133.5t3 253.5 q0 180 -2 279.5t-13.5 146t-36 54.5t-69.5 8q-47 0 -60.5 -10.5t-13.5 -55.5v-811z" />
<glyph unicode="e" horiz-adv-x="651" d="M57 96v1254q0 53 15.5 74.5t56.5 21.5h430q41 0 55.5 -16.5t14.5 -69.5v-80q0 -53 -14.5 -71.5t-55.5 -18.5h-213q-25 0 -32 -9.5t-7 -37.5v-203q0 -31 5 -38t34 -7h109q35 0 49 -14.5t14 -59.5v-110q0 -41 -14.5 -56.5t-48.5 -15.5h-109q-23 0 -31 -6t-8 -27v-303 q0 -27 8.5 -37t36.5 -10h215q45 0 61.5 -20.5t16.5 -73.5v-70q0 -49 -16.5 -70.5t-57.5 -21.5h-442q-43 0 -57.5 19.5t-14.5 76.5z" />
<glyph unicode="f" horiz-adv-x="622" d="M57 90v1256q0 59 14.5 79.5t55.5 20.5h412q43 0 59 -20.5t16 -73.5v-76q0 -49 -14 -67.5t-51 -18.5h-201q-27 0 -33 -10.5t-6 -49.5v-196q0 -23 6.5 -31t22.5 -8h121q41 0 53 -17.5t12 -68.5v-76q0 -53 -13 -73.5t-54 -20.5h-109q-27 0 -33 -10.5t-6 -44.5v-494 q0 -51 -13 -70.5t-48 -19.5h-123q-41 0 -54.5 18.5t-13.5 71.5z" />
<glyph unicode="g" d="M37 717q0 178 5 314t27.5 228.5t73 139.5t142.5 47h293q41 0 57 -16.5t16 -75.5v-70q0 -53 -13 -73.5t-52 -20.5h-158q-49 0 -75.5 -8t-39 -53.5t-15.5 -142.5t-3 -275v-316q0 -78 32.5 -108.5t82.5 -30.5q45 0 74.5 28.5t29.5 86.5v213q0 33 -5 44t-22 11h-63 q-29 0 -34 17.5t-5 50.5v100q0 47 13.5 67.5t66.5 20.5h207q41 0 54 -23.5t13 -72.5v-375q0 -102 -10 -182t-45 -134.5t-101.5 -83t-176.5 -28.5q-139 0 -214 44t-110 133t-40 224t-5 320z" />
<glyph unicode="h" horiz-adv-x="819" d="M57 96v1256q0 53 15.5 73.5t54.5 20.5h119q35 0 49 -22.5t14 -69.5v-418q0 -27 8.5 -34t24.5 -7h135q16 0 24.5 7t8.5 34v418q0 47 14.5 69.5t48.5 22.5h119q39 0 54.5 -20.5t15.5 -73.5v-1256q0 -55 -14.5 -75.5t-55.5 -20.5h-117q-41 0 -53 22.5t-12 69.5v502 q0 27 -7 36t-28 9h-131q-23 0 -29 -9t-6 -36v-502q0 -47 -12 -69.5t-55 -22.5h-115q-41 0 -55.5 20.5t-14.5 75.5z" />
<glyph unicode="i" horiz-adv-x="368" d="M57 96v1252q0 57 14.5 77.5t55.5 20.5h119q37 0 51 -21.5t14 -76.5v-1258q0 -59 -15 -74.5t-56 -15.5h-107q-47 0 -61.5 18.5t-14.5 77.5z" />
<glyph unicode="j" horiz-adv-x="501" d="M6 88v82q0 57 15.5 71.5t54.5 14.5h57q35 0 51.5 17.5t16.5 76.5v1004q0 55 14 73.5t59 18.5h109q47 0 60.5 -18.5t13.5 -71.5v-985q0 -76 -10.5 -137.5t-38.5 -114.5q-35 -61 -86.5 -90t-133.5 -29h-106q-47 0 -61.5 16.5t-14.5 71.5z" />
<glyph unicode="k" horiz-adv-x="813" d="M57 96v1252q0 57 14.5 77.5t55.5 20.5h119q37 0 51 -21.5t14 -76.5v-324q0 -8 2 -15.5t11 -7.5q8 0 20 23l162 338q20 45 33.5 64.5t48.5 19.5h192q27 0 27 -27q0 -12 -8 -26l-213 -416q-4 -10 -9.5 -21.5t-5.5 -21.5q0 -12 1 -21.5t6 -21.5l219 -825q12 -43 3 -54.5 t-38 -11.5h-176q-29 0 -41.5 12.5t-20.5 50.5l-102 482q-6 29 -10 47t-15 18q-6 0 -11 -2t-11 -10t-16.5 -25.5t-26.5 -50.5q-14 -25 -17.5 -53.5t-3.5 -67.5v-311q0 -59 -15 -74.5t-56 -15.5h-107q-47 0 -61.5 18.5t-14.5 77.5z" />
<glyph unicode="l" horiz-adv-x="602" d="M57 96v1256q0 51 15.5 72.5t54.5 21.5h115q43 0 56 -20.5t13 -73.5v-1051q0 -27 9.5 -36t25.5 -9h176q41 0 57.5 -19.5t16.5 -72.5v-72q0 -49 -19.5 -70.5t-60.5 -21.5h-389q-43 0 -56.5 18.5t-13.5 77.5z" />
<glyph unicode="m" horiz-adv-x="1009" d="M57 92v1264q0 53 13.5 71.5t54.5 18.5h121q51 0 67.5 -10.5t28.5 -57.5l145 -520q6 -20 19 -20q10 0 16 20l146 520q12 47 28.5 57.5t67.5 10.5h121q41 0 55 -18.5t14 -71.5v-1264q0 -59 -13 -75.5t-58 -16.5h-115q-43 0 -56.5 19.5t-13.5 70.5v588v34.5t-10 18.5 q-6 0 -10 -16.5t-8 -32.5l-86 -428q-10 -41 -26.5 -53.5t-51.5 -12.5t-52.5 12.5t-27.5 53.5l-86 428q-4 16 -8 32.5t-10 16.5q-10 0 -10.5 -18.5t-0.5 -34.5v-588q0 -51 -13 -70.5t-56 -19.5h-115q-45 0 -57.5 16.5t-12.5 75.5z" />
<glyph unicode="n" horiz-adv-x="847" d="M57 98v1252q0 57 14.5 76.5t61.5 19.5h98q39 0 53.5 -11.5t30.5 -56.5l183 -536q8 -20 13 -25.5t11 -5.5t8 8t2 33v498q0 51 14.5 73.5t53.5 22.5h113q35 0 56.5 -17.5t21.5 -80.5v-1250q0 -57 -14.5 -77.5t-61.5 -20.5h-101q-39 0 -53 10t-31 58l-182 538 q-6 20 -11 25.5t-11 5.5q-8 0 -10.5 -8t-2.5 -33v-500q0 -51 -13 -73.5t-52 -22.5h-113q-37 0 -57.5 16.5t-20.5 81.5z" />
<glyph unicode="o" d="M37 725q0 162 5 297t38 232.5t103.5 151.5t201.5 54t202.5 -54t104.5 -151.5t38 -232.5t5 -297t-5 -298t-38 -235.5t-104.5 -155.5t-202.5 -56t-201.5 56t-103.5 155.5t-38 235.5t-5 298zM291 725q0 -143 2 -234.5t11 -143.5t27.5 -71.5t53.5 -19.5t54.5 19.5t28.5 71.5 t11 143.5t2 234.5t-2 233.5t-11 141.5t-28.5 69.5t-54.5 18.5t-53.5 -18.5t-27.5 -69.5t-11 -141.5t-2 -233.5z" />
<glyph unicode="p" horiz-adv-x="751" d="M57 92v1254q0 55 14.5 77.5t53.5 22.5h334q137 0 207.5 -117t70.5 -346q0 -217 -62.5 -331.5t-180.5 -114.5h-183v-445q0 -57 -13 -74.5t-56 -17.5h-117q-43 0 -55.5 16.5t-12.5 75.5zM311 829q0 -23 8.5 -29.5t24.5 -6.5h72q16 0 28.5 6t20.5 26.5t12 58.5t4 101 q0 66 -4 107t-13 62.5t-22.5 28.5t-31.5 7h-64q-16 0 -25.5 -6t-9.5 -33v-322z" />
<glyph unicode="q" d="M37 725q0 162 5 297t37 232.5t102.5 151.5t201.5 54t202.5 -54t104.5 -151.5t38 -232.5t5 -297q0 -104 -1 -199.5t-10 -176.5t-28.5 -147.5t-56.5 -113.5l121 -129q23 -23 20.5 -39t-30.5 -31l-144 -63q-23 -10 -38 -2t-40 39l-92 121q-12 0 -24.5 -2t-26.5 -2 q-131 0 -201.5 56t-102.5 155.5t-37 235.5t-5 298zM289 725q0 -143 2 -234.5t11 -143.5t27.5 -71.5t53.5 -19.5t55.5 19.5t29.5 71.5t11 143.5t2 234.5t-2 233.5t-11 141.5t-29.5 69.5t-55.5 18.5t-53.5 -18.5t-27.5 -69.5t-11 -141.5t-2 -233.5z" />
<glyph unicode="r" horiz-adv-x="759" d="M57 92v1256q0 55 15.5 76.5t56.5 21.5h311q297 0 297 -447q0 -123 -26.5 -197.5t-89.5 -127.5l124 -615q2 -10 3.5 -17t1.5 -11q0 -31 -39 -31h-170q-29 0 -40.5 11.5t-17.5 51.5l-88 521q-4 14 -10 16t-16 2h-31q-10 0 -17.5 -2t-7.5 -18v-492q0 -47 -15 -68.5 t-56 -21.5h-117q-41 0 -54.5 19.5t-13.5 72.5zM313 897q0 -39 23 -39h72q39 0 58 40t19 134q0 92 -19.5 125t-53.5 33h-70q-12 0 -20.5 -9.5t-8.5 -21.5v-262z" />
<glyph unicode="s" horiz-adv-x="659" d="M14 1184q0 147 66.5 204.5t202.5 57.5h247q61 0 62 -78v-96q0 -47 -16.5 -64.5t-51.5 -17.5h-192q-52 0 -64 -41q-3 -12 -4 -25q0 -30 19 -63l233 -426q43 -80 68.5 -137.5t40 -103.5t18.5 -84t4 -79q0 -129 -63.5 -180t-167.5 -51h-324q-41 0 -56.5 17.5t-15.5 70.5v76 q0 57 14.5 74.5t55.5 17.5h223q47 0 57 36q3 12 3 24q0 24 -13 46l-245 461q-37 68 -56.5 121t-30 96t-12.5 78t-2 66z" />
<glyph unicode="t" horiz-adv-x="681" d="M6 1276v74q0 57 15.5 76.5t56.5 19.5h528q41 0 55.5 -19.5t14.5 -68.5v-80q0 -53 -13.5 -70.5t-54.5 -17.5h-112q-16 0 -21.5 -8t-5.5 -35v-1051q0 -57 -14.5 -76.5t-55.5 -19.5h-112q-45 0 -59.5 18.5t-14.5 69.5v1059q0 29 -8 36t-21 7h-112q-39 0 -52.5 16.5 t-13.5 69.5z" />
<glyph unicode="u" horiz-adv-x="784" d="M43 401v949q0 55 16.5 75.5t59.5 20.5h114q41 0 53.5 -18.5t12.5 -71.5v-987q0 -59 21.5 -86t74.5 -27q47 0 68.5 26.5t21.5 88.5v985q0 53 13.5 71.5t56.5 18.5h119q43 0 55 -18.5t12 -71.5v-944q0 -88 -12 -167t-49 -137.5t-106.5 -93t-186.5 -34.5q-109 0 -175.5 28.5 t-104 82.5t-51 132t-13.5 178z" />
<glyph unicode="v" horiz-adv-x="788" d="M6 1386q-4 33 3 46.5t36 13.5h168q27 0 39 -11.5t18 -58.5l105 -823q2 -33 20 -33q16 0 19 33l104 823q6 47 18.5 58.5t38.5 11.5h168q29 0 36 -13.5t3 -46.5l-215 -1327q-4 -35 -16 -47t-41 -12h-231q-29 0 -41.5 12.5t-16.5 46.5z" />
<glyph unicode="w" horiz-adv-x="1198" d="M7 1411q3 16 10.5 23.5t19.5 9.5t26 2h148q27 0 37 -13.5t14 -50.5l103 -704q6 -29 18 -29q10 0 18 29l97 416l-29 274q-4 29 3 53.5t50 24.5h152q29 0 39 -14.5t14 -49.5l86 -702q2 -31 16 -31t19 31l86 709q6 57 49 57h160q31 0 42 -15.5t3 -62.5l-225 -1305 q-6 -35 -19.5 -49t-42.5 -14h-168q-35 0 -46 12.5t-15 53.5l-62 483q-2 8 -3 16t-7 8t-9 -7t-5 -15l-121 -508q-4 -23 -16.5 -33t-40.5 -10h-142q-29 0 -39 10t-14 43l-205 1313q-4 29 -1 45z" />
<glyph unicode="x" horiz-adv-x="741" d="M7 19.5q-7 19.5 3 60.5l144 670l-144 618q-3 17 -3 30q0 48 46 48h166q43 0 55 -60l78 -407q8 -29 19 -29q10 0 16 29l78 407q12 59 57 60h164q48 0 48 -49q0 -13 -3 -29l-145 -618l145 -670q10 -41 3 -60.5t-38 -19.5h-170q-49 0 -57 53l-80 449q-6 27 -18 26 q-12 0 -21 -26l-78 -449q-8 -53 -57 -53h-170q-31 0 -38 19.5z" />
<glyph unicode="y" horiz-adv-x="745" d="M4 1421.5q6 24.5 41 24.5h145q23 0 35.5 -9.5t22.5 -43.5l110 -469q4 -16 6.5 -20.5t8.5 -4.5t8 4t6 21l111 469q10 35 22 44t35 9h145q35 0 41.5 -24.5t-2.5 -51.5l-239 -817v-461q0 -57 -13.5 -74.5t-58.5 -17.5h-113q-43 0 -56 17.5t-13 74.5v461l-240 817 q-8 27 -2 51.5z" />
<glyph unicode="z" horiz-adv-x="673" d="M16 86v164v24.5t2 28.5t9.5 39t23.5 57l346 752q8 16 4 27.5t-22 11.5h-270q-25 0 -38.5 3t-21.5 12t-10 26.5t-2 46.5v76q0 55 12 73.5t57 18.5h484q66 0 65 -86v-180q0 -20 -7 -46t-23 -65l-346 -762q-10 -18 -6.5 -34.5t26.5 -16.5h289q41 0 55 -18.5t14 -75.5v-74 q0 -51 -16 -69.5t-63 -18.5h-492q-41 0 -55.5 16.5t-14.5 69.5z" />
<glyph unicode="{" horiz-adv-x="514" d="M35 633v129q0 33 24.5 41t46.5 24q33 29 39.5 71t6.5 81v319q0 53 7 100.5t27.5 84.5t58.5 58.5t99 21.5h76q43 0 51 -20.5t8 -55.5v-53q0 -41 -9 -55.5t-22.5 -17.5t-30 -2t-29.5 -10.5t-22.5 -40t-9.5 -91.5v-259q0 -41 -2 -80.5t-12 -74.5t-35.5 -61.5t-70.5 -39.5v-4 q45 -10 70.5 -40.5t35.5 -71.5t12 -86t2 -82v-232q0 -63 9.5 -93t22.5 -41t29.5 -10t30 -2t22.5 -17.5t9 -55.5q0 -20 1 -42.5t-3 -41t-16 -31t-41 -12.5q-16 0 -30.5 1t-31.5 1q-61 0 -102 21.5t-63.5 57.5t-31.5 83t-9 102v310q0 18 -1 40.5t-6.5 45t-14.5 42t-26 29.5 q-12 8 -24 11.5t-22.5 8.5t-16.5 13t-6 27z" />
<glyph unicode="|" horiz-adv-x="368" d="M109 -279v1762q0 53 15 66.5t56 13.5h68q37 0 51 -16.5t14 -63.5v-1768q0 -47 -15 -60t-56 -13h-58q-47 0 -61 16t-14 63z" />
<glyph unicode="}" horiz-adv-x="514" d="M33 -75.5q2 22.5 2 42.5q0 41 9 55.5t22.5 17.5t30 2t29.5 10t22.5 41t9.5 93v232q0 37 2 82t12 86t34.5 71.5t69.5 40.5v4q-45 12 -69.5 39t-34.5 62t-12 75t-2 80v259q0 63 -9.5 91.5t-22.5 40t-29.5 10.5t-30 2t-22.5 17.5t-9 55.5v53q0 35 8 55.5t49 20.5h78 q61 0 99 -21.5t58.5 -58.5t27.5 -84t7 -101v-319q0 -39 6.5 -81t39.5 -71q10 -8 22 -13t23.5 -11t18.5 -15.5t7 -25.5v-129q0 -18 -6 -26.5t-16.5 -13.5t-22.5 -8t-24 -12q-16 -10 -26.5 -29.5t-14.5 -42t-5.5 -45t-1.5 -40.5v-310q0 -55 -9 -102t-31.5 -83t-63.5 -57.5 t-102 -21.5q-16 0 -31.5 -1t-32.5 -1q-29 0 -41 12.5t-16 31t-2 41z" />
<glyph unicode="~" horiz-adv-x="1413" d="M0 694v88q0 23 2 37.5t8 24.5t18.5 18t32.5 19q72 41 160 63.5t166 22.5q96 0 162.5 -20.5t129 -44t133.5 -44t175 -20.5q109 0 194 21.5t171 58.5q23 10 42 3.5t19 -40.5v-97q0 -23 -2 -38t-8 -26t-18.5 -19.5t-32.5 -16.5q-80 -33 -178.5 -51.5t-198.5 -18.5 q-102 0 -173 20.5t-133.5 45.5t-130 45t-163.5 20q-86 0 -161 -26.5t-153 -63.5q-23 -10 -42 -4t-19 43z" />
<glyph unicode="&#xa1;" horiz-adv-x="372" d="M61 92l9 889q0 53 14 71.5t51 18.5h90q39 0 54.5 -18.5t17.5 -71.5l14 -891q2 -90 -65 -90h-117q-41 0 -54.5 19.5t-13.5 72.5zM61 1286v62q0 53 10.5 75.5t55.5 22.5h113q47 0 57 -22.5t10 -75.5v-62q0 -51 -10 -73.5t-57 -22.5h-113q-45 0 -55.5 22.5t-10.5 73.5z" />
<glyph unicode="&#xa2;" horiz-adv-x="425" d="M35 983q0 111 4 188.5t16.5 127t36 75t60.5 31.5v78q0 20 5 24t21 4h74q16 0 21.5 -4t5.5 -26v-72h73q39 0 39 -43v-109q0 -29 -8 -38t-33 -9h-76q-18 0 -28 -5t-15.5 -26.5t-6.5 -63.5t-1 -118t2 -117.5t6.5 -62t13.5 -26t25 -5.5h80q23 0 31 -9t8 -32v-112 q0 -25 -7 -34t-30 -9h-65v-66q0 -25 -8.5 -33t-24.5 -8h-66q-20 0 -27 6.5t-7 28.5v74q-35 6 -57.5 27.5t-36 66.5t-19.5 116.5t-6 180.5z" />
<glyph unicode="&#xa3;" horiz-adv-x="768" d="M16 758v98q0 41 11.5 58.5t38.5 17.5h84q10 0 13 5t7 19l31 248q16 125 63 183.5t127 58.5h250q39 0 53.5 -19.5t14.5 -68.5v-82q0 -49 -12.5 -67.5t-41.5 -18.5h-163q-23 0 -32 -13.5t-14 -46.5l-24 -159q-2 -16 -1 -27.5t19 -11.5h187q47 0 47 -78v-92 q0 -47 -13.5 -65.5t-50.5 -18.5h-190q-16 0 -21.5 -8t-9.5 -41l-39 -334q-4 -23 2 -31t29 -8h283q39 0 54 -21.5t15 -74.5v-70q0 -51 -15.5 -70.5t-55.5 -19.5h-461q-37 0 -60.5 13.5t-36 34t-16.5 47t-4 55.5q0 18 1 41.5t3 44.5q2 23 4 49q2 25 10 71q6 41 15.5 108.5 t25.5 174.5q6 39 -14 39h-72q-23 0 -32 16.5t-9 63.5z" />
<glyph unicode="&#xa5;" horiz-adv-x="999" d="M23 530v41q0 37 7 51.5t38 14.5h268l-43 156h-225q-31 0 -38 15t-7 50v41q0 35 7 51.5t38 16.5h172l-117 403q-8 27 -2 51.5t41 24.5h145q23 0 35 -9.5t23 -43.5l110 -469q4 -16 6 -20.5t8 -4.5t8.5 4t8.5 21l108 469q10 35 22.5 44t35.5 9h145q35 0 41 -24.5t-2 -51.5 l-119 -403h183q31 0 38 -16.5t7 -51.5v-41q0 -35 -7.5 -50t-37.5 -15h-234l-45 -156h279q31 0 38 -14.5t7 -51.5v-41q0 -35 -7.5 -51t-37.5 -16h-302v-371q0 -57 -14 -74.5t-57 -17.5h-113q-45 0 -58.5 17.5t-13.5 74.5v371h-294q-31 0 -38 16.5t-7 50.5z" />
<glyph unicode="&#xa7;" horiz-adv-x="815" d="M10 778q0 145 38 222t116 104v2q0 186 62.5 263t195.5 77h276q47 0 61.5 -13.5t14.5 -58.5v-59q0 -43 -14.5 -55.5t-61.5 -12.5h-229q-23 0 -38 -4t-24.5 -18.5t-13.5 -41t-4 -71.5q0 -29 31 -55.5t77 -54t100 -59.5t100 -73t77 -92t31 -116q0 -147 -38 -222t-118 -100 v-8q0 -186 -61.5 -260t-196.5 -74h-274q-49 0 -62.5 12.5t-13.5 59.5v57q0 45 14.5 56.5t61.5 11.5h223q47 0 62.5 22.5t15.5 108.5q0 33 -30 61.5t-76 57t-98 59.5t-98 70.5t-76 89t-30 114.5zM233 784q0 -31 32 -57.5t80 -56t103.5 -62.5t102.5 -76q16 10 23.5 37t7.5 86 q0 33 -32 61.5t-80 58.5t-103.5 60.5t-100.5 71.5q-18 -10 -25.5 -36.5t-7.5 -86.5z" />
<glyph unicode="&#xa8;" horiz-adv-x="501" d="M23 1567v82q0 37 12 52t53 15h64q41 0 54 -15t13 -52v-82q0 -37 -13 -52.5t-54 -15.5h-64q-41 0 -53 15.5t-12 52.5zM285 1567v82q0 37 12 52t53 15h64q41 0 54 -15t13 -52v-82q0 -37 -13 -52.5t-54 -15.5h-64q-41 0 -53 15.5t-12 52.5z" />
<glyph unicode="&#xa9;" horiz-adv-x="776" d="M23 1219q0 76 28.5 142t77.5 115.5t115.5 78t142.5 28.5t142.5 -28.5t116.5 -78t79 -116t29 -141.5q0 -76 -29 -142.5t-79 -117t-116.5 -79t-142.5 -28.5t-142.5 28.5t-115.5 79t-77.5 117t-28.5 142.5zM88 1219q0 -61 23.5 -116.5t64.5 -95.5t95.5 -63.5t115.5 -23.5 t116.5 23.5t95.5 63.5t63.5 95t23.5 117q0 61 -23.5 115.5t-63.5 95t-95 64.5t-117 24q-61 0 -115.5 -24t-95.5 -64.5t-64.5 -95t-23.5 -115.5zM238 1212q0 117 36.5 180.5t116.5 63.5q43 0 69.5 -18.5t41 -45t18.5 -53t4 -45.5h-71q-2 31 -14.5 61.5t-47.5 30.5 q-41 0 -59.5 -46t-18.5 -123q0 -78 17.5 -124t60.5 -46q20 0 33.5 11t21 29.5t10.5 40t3 39.5h71q0 -109 -42 -150.5t-99 -41.5q-72 0 -111.5 64.5t-39.5 172.5z" />
<glyph unicode="&#xab;" horiz-adv-x="456" d="M10 555v279q0 41 5 55t24 29l133 96q18 16 26.5 8t8.5 -27v-145q0 -25 -4 -37t-13 -25l-69 -100l63 -88q12 -20 17.5 -28.5t5.5 -26.5v-156q0 -23 -9.5 -23.5t-19.5 3.5l-133 94q-35 29 -35 92zM252 555v279q0 41 5 55t22 29l133 96q20 16 27 8t7 -27v-145q0 -25 -4 -37 t-10 -25l-70 -100l62 -88q14 -20 18 -28.5t4 -26.5v-156q0 -23 -9 -23.5t-19 3.5l-131 94q-35 27 -35 92z" />
<glyph unicode="&#xad;" horiz-adv-x="456" d="M23 711v108q0 53 13 70.5t54 17.5h277q41 0 55 -17.5t14 -70.5v-108q0 -53 -14 -70.5t-55 -17.5h-277q-41 0 -54 17t-13 71z" />
<glyph unicode="&#xae;" horiz-adv-x="776" d="M23 1219q0 76 28.5 142t77.5 115.5t115.5 78t142.5 28.5t142.5 -28.5t116.5 -78t79 -116t29 -141.5q0 -76 -29 -142.5t-79 -117t-116.5 -79t-142.5 -28.5t-142.5 28.5t-115.5 79t-77.5 117t-28.5 142.5zM88 1219q0 -61 23.5 -116.5t64.5 -95.5t95.5 -63.5t115.5 -23.5 t116.5 23.5t95.5 63.5t63.5 95t23.5 117q0 61 -23.5 115.5t-63.5 95t-95 64.5t-117 24q-61 0 -115.5 -24t-95.5 -64.5t-64.5 -95t-23.5 -115.5zM285 987v459h92q72 0 98.5 -32t26.5 -99q0 -43 -13.5 -76t-37.5 -47l61 -205h-72l-55 184h-35v-184h-65zM350 1247h19 q37 0 50 15.5t13 50.5q0 29 -12 42t-45 13h-25v-121z" />
<glyph unicode="&#xaf;" horiz-adv-x="509" d="M10 1567v53q0 47 22.5 57.5t76.5 10.5h292q53 0 75 -10.5t22 -57.5v-53q0 -47 -21.5 -57.5t-75.5 -10.5h-292q-53 0 -76 10.5t-23 57.5z" />
<glyph unicode="&#xb0;" horiz-adv-x="817" d="M145 1300q0 59 22.5 111.5t61.5 92.5t92.5 62.5t112.5 22.5t111.5 -22.5t91.5 -62.5t61.5 -92t22.5 -112q0 -59 -22.5 -111t-61.5 -92t-91 -62.5t-112 -22.5q-59 0 -111.5 22.5t-91 62.5t-62.5 92t-24 111zM297 1300q2 -57 41 -97t98 -40q55 0 94 40t39 97t-38.5 96.5 t-96.5 39.5q-57 0 -97 -39.5t-40 -96.5z" />
<glyph unicode="&#xb1;" horiz-adv-x="931" d="M14 82v98q0 51 14.5 68.5t53.5 17.5h768q39 0 53.5 -17.5t14.5 -68.5v-98q0 -53 -18.5 -67.5t-51.5 -14.5h-764q-33 0 -51.5 14.5t-18.5 67.5zM14 700v101q0 51 14.5 69.5t53.5 18.5h244v235q0 33 14 51.5t68 18.5h110q51 0 68.5 -13.5t17.5 -54.5v-237h246 q39 0 53.5 -18.5t14.5 -69.5v-101q0 -53 -18.5 -67.5t-51.5 -14.5h-244v-229q0 -39 -17.5 -52t-68.5 -13h-110q-53 0 -67.5 17t-14.5 50v227h-242q-33 0 -51.5 14.5t-18.5 67.5z" />
<glyph unicode="&#xb4;" horiz-adv-x="403" d="M-6 1520q0 14 10 26l98 129q16 23 23.5 29t24.5 6h190q31 0 31 -29q0 -18 -23 -34l-149 -127q-12 -12 -19.5 -16.5t-27.5 -4.5h-136q-23 0 -22 21z" />
<glyph unicode="&#xb5;" horiz-adv-x="1009" d="M57 92v1264q0 53 13.5 71.5t54.5 18.5h121q51 0 67.5 -10.5t28.5 -57.5l145 -520q6 -20 19 -20q10 0 16 20l146 520q12 47 28.5 57.5t67.5 10.5h121q41 0 55 -18.5t14 -71.5v-1264q0 -59 -13 -75.5t-58 -16.5h-115q-43 0 -56.5 19.5t-13.5 70.5v588v34.5t-10 18.5 q-6 0 -10 -16.5t-8 -32.5l-86 -428q-10 -41 -26.5 -53.5t-51.5 -12.5t-52.5 12.5t-27.5 53.5l-86 428q-4 16 -8 32.5t-10 16.5q-10 0 -10.5 -18.5t-0.5 -34.5v-588q0 -51 -13 -70.5t-56 -19.5h-115q-45 0 -57.5 16.5t-12.5 75.5z" />
<glyph unicode="&#xb6;" horiz-adv-x="935" d="M35 1083q0 68 19.5 133.5t59.5 116.5t100 82t142 31h426q39 0 53.5 -13.5t14.5 -56.5v-116q0 -47 -16.5 -58.5t-49.5 -11.5v-1350q0 -31 -13 -43t-50 -12h-70q-39 0 -49 15.5t-10 39.5v1350h-113v-1350q0 -31 -13 -43t-48 -12h-72q-39 0 -48 15.5t-9 39.5v893 q-61 0 -109.5 30t-80 79t-48 112.5t-16.5 128.5z" />
<glyph unicode="&#xb7;" horiz-adv-x="303" d="M23 682v129q0 53 10 74.5t55 21.5h127q45 0 56.5 -21.5t11.5 -74.5v-129q0 -53 -11.5 -74.5t-56.5 -21.5h-127q-45 0 -55 21.5t-10 74.5z" />
<glyph unicode="&#xb8;" horiz-adv-x="266" d="M0 -162q0 39 16.5 52.5t67.5 13.5h45q29 0 29 33q0 14 -7.5 40.5t-23.5 79.5h104q23 -72 29 -106.5t6 -69.5q0 -82 -29.5 -130t-82.5 -48h-78q-49 0 -62.5 15.5t-13.5 70.5v49z" />
<glyph unicode="&#xbb;" horiz-adv-x="456" d="M10 389v156q0 18 4 26.5t19 28.5l63 88l-69 100q-10 12 -13.5 24.5t-3.5 37.5v145q0 18 8.5 26.5t26.5 -7.5l133 -96q16 -14 22.5 -29t6.5 -55v-279q0 -63 -35 -92l-133 -94q-10 -4 -19.5 -3t-9.5 23zM252 389v156q0 18 3 26.5t17 28.5l64 88l-70 100q-8 12 -11 24.5 t-3 37.5v145q0 18 6 26.5t27 -7.5l133 -96q16 -14 22 -29t6 -55v-279q0 -66 -34 -92l-136 -94q-10 -4 -17 -3t-7 23z" />
<glyph unicode="&#xbf;" horiz-adv-x="581" d="M25 299q0 45 2 80t8 66.5t16 63.5t29 69l84 178q16 31 19 50t3 62v142q0 37 14.5 50t53.5 13h108q41 0 56.5 -16.5t15.5 -63.5v-198q0 -43 -3 -62.5t-19 -50.5l-84 -176q-18 -37 -28.5 -59.5t-14.5 -40t-5 -33t-1 -35.5q0 -45 15 -63.5t56 -18.5h144q72 0 71 -92v-74 q0 -90 -71 -90h-261q-55 0 -94 10t-64.5 42t-37.5 91.5t-12 155.5zM186 1286v62q0 53 10.5 75.5t57.5 22.5h113q45 0 56 -22.5t11 -75.5v-62q0 -51 -11 -73.5t-56 -22.5h-113q-47 0 -57.5 22.5t-10.5 73.5z" />
<glyph unicode="&#xc0;" horiz-adv-x="804" d="M6 33l176 1329q6 47 25.5 65.5t64.5 18.5h252q39 0 58.5 -19.5t25.5 -66.5l189 -1327q6 -33 -33 -33h-205q-16 0 -24.5 8t-12.5 31l-41 305q-4 23 -11 29t-26 6h-92q-16 0 -24.5 -6t-12.5 -29l-32 -309q-4 -23 -11.5 -29t-29.5 -6h-199q-39 0 -37 33zM149 1681 q0 29 31 29h191q16 0 24 -6t25 -29l96 -129q10 -12 10 -26q0 -20 -22 -21h-135q-18 0 -26.5 4t-21.5 17l-149 127q-23 18 -23 34zM342 659q0 -25 29 -24h53q33 0 31 24l-41 498q-2 33 -17 33q-16 0 -18 -35z" />
<glyph unicode="&#xc1;" horiz-adv-x="804" d="M6 33l176 1329q6 47 25.5 65.5t64.5 18.5h252q39 0 58.5 -19.5t25.5 -66.5l189 -1327q6 -33 -33 -33h-205q-16 0 -24.5 8t-12.5 31l-41 305q-4 23 -11 29t-26 6h-92q-16 0 -24.5 -6t-12.5 -29l-32 -309q-4 -23 -11.5 -29t-29.5 -6h-199q-39 0 -37 33zM273 1520 q0 14 10 26l98 129q16 23 23.5 29t24.5 6h190q31 0 31 -29q0 -18 -23 -34l-149 -127q-12 -12 -19.5 -16.5t-27.5 -4.5h-136q-23 0 -22 21zM342 659q0 -25 29 -24h53q33 0 31 24l-41 498q-2 33 -17 33q-16 0 -18 -35z" />
<glyph unicode="&#xc2;" horiz-adv-x="804" d="M6 33l176 1329q6 47 25.5 65.5t64.5 18.5h252q39 0 58.5 -19.5t25.5 -66.5l189 -1327q6 -33 -33 -33h-205q-16 0 -24.5 8t-12.5 31l-41 305q-4 23 -11 29t-26 6h-92q-16 0 -24.5 -6t-12.5 -29l-32 -309q-4 -23 -11.5 -29t-29.5 -6h-199q-39 0 -37 33zM155 1516q0 6 4 18 l74 141q10 20 21.5 27.5t37.5 7.5h224q27 0 37 -7t20 -28l74 -141q2 -4 4 -9t2 -9q0 -16 -21 -17h-116q-16 0 -26.5 3t-23.5 20l-63 82l-61 -82q-12 -16 -23.5 -19.5t-26.5 -3.5h-116q-20 0 -21 17zM342 659q0 -25 29 -24h53q33 0 31 24l-41 498q-2 33 -17 33q-16 0 -18 -35 z" />
<glyph unicode="&#xc3;" horiz-adv-x="804" d="M6 33l176 1329q6 47 25.5 65.5t64.5 18.5h252q39 0 58.5 -19.5t25.5 -66.5l189 -1327q6 -33 -33 -33h-205q-16 0 -24.5 8t-12.5 31l-41 305q-4 23 -11 29t-26 6h-92q-16 0 -24.5 -6t-12.5 -29l-32 -309q-4 -23 -11.5 -29t-29.5 -6h-199q-39 0 -37 33zM137 1556v93 q0 27 11.5 44t44.5 17h86q10 0 19 -2t17 -4l154 -47q14 -6 27 -6q8 0 8 14v10q0 16 11 25.5t24 9.5h53q35 0 45 -13.5t10 -43.5v-92q0 -27 -10 -44.5t-45 -17.5h-86q-10 0 -19.5 2t-17.5 4l-154 47q-16 6 -26 7q-8 0 -8 -15v-10q0 -16 -10.5 -25.5t-24.5 -9.5h-53 q-33 0 -44.5 13.5t-11.5 43.5zM342 659q0 -25 29 -24h53q33 0 31 24l-41 498q-2 33 -17 33q-16 0 -18 -35z" />
<glyph unicode="&#xc4;" horiz-adv-x="804" d="M6 33l176 1329q6 47 25.5 65.5t64.5 18.5h252q39 0 58.5 -19.5t25.5 -66.5l189 -1327q6 -33 -33 -33h-205q-16 0 -24.5 8t-12.5 31l-41 305q-4 23 -11 29t-26 6h-92q-16 0 -24.5 -6t-12.5 -29l-32 -309q-4 -23 -11.5 -29t-29.5 -6h-199q-39 0 -37 33zM175 1567v82 q0 37 12 52t53 15h64q41 0 54 -15t13 -52v-82q0 -37 -13 -52.5t-54 -15.5h-64q-41 0 -53 15.5t-12 52.5zM342 659q0 -25 29 -24h53q33 0 31 24l-41 498q-2 33 -17 33q-16 0 -18 -35zM437 1567v82q0 37 12 52t53 15h64q41 0 54 -15t13 -52v-82q0 -37 -13 -52.5t-54 -15.5h-64 q-41 0 -53 15.5t-12 52.5z" />
<glyph unicode="&#xc5;" horiz-adv-x="804" d="M6 33l176 1329q6 43 23.5 59.5t46.5 22.5q-12 16 -22.5 38.5t-10.5 57.5q0 82 49 134t123 52q76 0 124 -52t48 -136q0 -35 -7 -54.5t-24 -37.5q33 -4 51.5 -22.5t24.5 -63.5l189 -1327q6 -33 -33 -33h-205q-16 0 -24.5 8t-12.5 31l-41 305q-4 23 -11 29t-26 6h-92 q-16 0 -24.5 -6t-12.5 -29l-32 -309q-4 -23 -11.5 -29t-29.5 -6h-199q-39 0 -37 33zM324 1538q0 -37 18 -59.5t49 -22.5t50.5 22.5t19.5 57.5q0 37 -19.5 60.5t-50.5 23.5t-49 -20.5t-18 -61.5zM342 659q0 -25 29 -24h53q33 0 31 24l-41 498q-2 33 -17 33q-16 0 -18 -35z " />
<glyph unicode="&#xc6;" horiz-adv-x="1107" d="M6 33l287 1329q10 47 31.5 65.5t66.5 18.5h619q41 0 55 -16.5t14 -69.5v-80q0 -53 -14 -71.5t-55 -18.5h-213q-25 0 -32 -9.5t-7 -37.5v-203q0 -31 5 -38t34 -7h108q37 0 50.5 -14.5t13.5 -59.5v-110q0 -41 -14.5 -56.5t-49.5 -15.5h-108q-23 0 -31 -6t-8 -27v-303 q0 -27 8 -37t39 -10h213q45 0 61.5 -20.5t16.5 -73.5v-70q0 -49 -16.5 -70.5t-57.5 -21.5h-483q-16 0 -23.5 8t-7.5 31v305q0 23 -8 29t-25 6h-94q-16 0 -25.5 -6t-13.5 -29l-59 -309q-4 -23 -13.5 -29t-31.5 -6h-199q-39 0 -33 33zM395 659q-4 -25 25 -24h55q33 0 33 24 v498q0 33 -14 33t-21 -35z" />
<glyph unicode="&#xc7;" horiz-adv-x="628" d="M37 696q0 217 5 361.5t29.5 230.5t75 122t140.5 36h268q37 0 52.5 -17.5t15.5 -58.5v-98q0 -51 -14.5 -66.5t-57.5 -15.5h-166q-31 0 -48.5 -9.5t-26.5 -55.5t-11 -140t-2 -266q0 -170 3 -263.5t11 -137.5t24.5 -53t45.5 -9h170q39 0 54.5 -16.5t15.5 -57.5v-104 q0 -43 -15.5 -60.5t-50.5 -17.5h-123q10 -41 14.5 -66.5t4.5 -52.5q0 -82 -30 -130t-83 -48h-78q-49 0 -62.5 15.5t-13.5 70.5v49q0 39 16.5 52.5t67.5 13.5h45q29 0 29 33q0 10 -3 24t-9 39h-33q-82 0 -133 27.5t-79 104.5t-38 213t-10 351z" />
<glyph unicode="&#xc8;" horiz-adv-x="651" d="M57 96v1254q0 53 15.5 74.5t56.5 21.5h430q41 0 55.5 -16.5t14.5 -69.5v-80q0 -53 -14.5 -71.5t-55.5 -18.5h-213q-25 0 -32 -9.5t-7 -37.5v-203q0 -31 5 -38t34 -7h109q35 0 49 -14.5t14 -59.5v-110q0 -41 -14.5 -56.5t-48.5 -15.5h-109q-23 0 -31 -6t-8 -27v-303 q0 -27 8.5 -37t36.5 -10h215q45 0 61.5 -20.5t16.5 -73.5v-70q0 -49 -16.5 -70.5t-57.5 -21.5h-442q-43 0 -57.5 19.5t-14.5 76.5zM92 1681q0 29 31 29h191q16 0 24 -6t25 -29l96 -129q10 -12 10 -26q0 -20 -22 -21h-135q-18 0 -26.5 4t-21.5 17l-149 127q-23 18 -23 34z " />
<glyph unicode="&#xc9;" horiz-adv-x="651" d="M57 96v1254q0 53 15.5 74.5t56.5 21.5h430q41 0 55.5 -16.5t14.5 -69.5v-80q0 -53 -14.5 -71.5t-55.5 -18.5h-213q-25 0 -32 -9.5t-7 -37.5v-203q0 -31 5 -38t34 -7h109q35 0 49 -14.5t14 -59.5v-110q0 -41 -14.5 -56.5t-48.5 -15.5h-109q-23 0 -31 -6t-8 -27v-303 q0 -27 8.5 -37t36.5 -10h215q45 0 61.5 -20.5t16.5 -73.5v-70q0 -49 -16.5 -70.5t-57.5 -21.5h-442q-43 0 -57.5 19.5t-14.5 76.5zM205 1520q0 14 10 26l98 129q16 23 23.5 29t24.5 6h190q31 0 31 -29q0 -18 -23 -34l-149 -127q-12 -12 -19.5 -16.5t-27.5 -4.5h-136 q-23 0 -22 21z" />
<glyph unicode="&#xca;" horiz-adv-x="651" d="M57 96v1254q0 53 15.5 74.5t56.5 21.5h430q41 0 55.5 -16.5t14.5 -69.5v-80q0 -53 -14.5 -71.5t-55.5 -18.5h-213q-25 0 -32 -9.5t-7 -37.5v-203q0 -31 5 -38t34 -7h109q35 0 49 -14.5t14 -59.5v-110q0 -41 -14.5 -56.5t-48.5 -15.5h-109q-23 0 -31 -6t-8 -27v-303 q0 -27 8.5 -37t36.5 -10h215q45 0 61.5 -20.5t16.5 -73.5v-70q0 -49 -16.5 -70.5t-57.5 -21.5h-442q-43 0 -57.5 19.5t-14.5 76.5zM86 1516q0 6 4 18l74 141q10 20 21.5 27.5t37.5 7.5h224q27 0 37 -7t20 -28l74 -141q2 -4 4 -9t2 -9q0 -16 -21 -17h-116q-16 0 -26.5 3 t-23.5 20l-63 82l-61 -82q-12 -16 -23.5 -19.5t-26.5 -3.5h-116q-20 0 -21 17z" />
<glyph unicode="&#xcb;" horiz-adv-x="651" d="M57 96v1254q0 53 15.5 74.5t56.5 21.5h430q41 0 55.5 -16.5t14.5 -69.5v-80q0 -53 -14.5 -71.5t-55.5 -18.5h-213q-25 0 -32 -9.5t-7 -37.5v-203q0 -31 5 -38t34 -7h109q35 0 49 -14.5t14 -59.5v-110q0 -41 -14.5 -56.5t-48.5 -15.5h-109q-23 0 -31 -6t-8 -27v-303 q0 -27 8.5 -37t36.5 -10h215q45 0 61.5 -20.5t16.5 -73.5v-70q0 -49 -16.5 -70.5t-57.5 -21.5h-442q-43 0 -57.5 19.5t-14.5 76.5zM109 1567v82q0 37 12 52t53 15h64q41 0 54 -15t13 -52v-82q0 -37 -13 -52.5t-54 -15.5h-64q-41 0 -53 15.5t-12 52.5zM371 1567v82 q0 37 12 52t53 15h64q41 0 54 -15t13 -52v-82q0 -37 -13 -52.5t-54 -15.5h-64q-41 0 -53 15.5t-12 52.5z" />
<glyph unicode="&#xcc;" horiz-adv-x="368" d="M-39 1681q0 29 31 29h191q16 0 24 -6t25 -29l96 -129q10 -12 10 -26q0 -20 -22 -21h-135q-18 0 -26.5 4t-21.5 17l-149 127q-23 18 -23 34zM59 96v1252q0 57 14.5 77.5t55.5 20.5h119q37 0 51 -21.5t14 -76.5v-1258q0 -59 -15 -74.5t-56 -15.5h-107q-47 0 -61.5 18.5 t-14.5 77.5z" />
<glyph unicode="&#xcd;" horiz-adv-x="368" d="M10 1520q0 14 10 26l98 129q16 23 23.5 29t24.5 6h190q31 0 31 -29q0 -18 -23 -34l-149 -127q-12 -12 -19.5 -16.5t-27.5 -4.5h-136q-23 0 -22 21zM57 96v1252q0 57 14.5 77.5t55.5 20.5h119q37 0 51 -21.5t14 -76.5v-1258q0 -59 -15 -74.5t-56 -15.5h-107 q-47 0 -61.5 18.5t-14.5 77.5z" />
<glyph unicode="&#xce;" horiz-adv-x="368" d="M-64 1516q0 6 4 18l74 141q10 20 21.5 27.5t37.5 7.5h224q27 0 37 -7t20 -28l74 -141q2 -4 4 -9t2 -9q0 -16 -21 -17h-116q-16 0 -26.5 3t-23.5 20l-63 82l-61 -82q-12 -16 -23.5 -19.5t-26.5 -3.5h-116q-20 0 -21 17zM57 96v1252q0 57 14.5 77.5t55.5 20.5h119 q37 0 51 -21.5t14 -76.5v-1258q0 -59 -15 -74.5t-56 -15.5h-107q-47 0 -61.5 18.5t-14.5 77.5z" />
<glyph unicode="&#xcf;" horiz-adv-x="368" d="M-40 1567v82q0 37 12 52t53 15h64q41 0 54 -15t13 -52v-82q0 -37 -13 -52.5t-54 -15.5h-64q-41 0 -53 15.5t-12 52.5zM57 96v1252q0 57 14.5 77.5t55.5 20.5h119q37 0 51 -21.5t14 -76.5v-1258q0 -59 -15 -74.5t-56 -15.5h-107q-47 0 -61.5 18.5t-14.5 77.5zM222 1567v82 q0 37 12 52t53 15h64q41 0 54 -15t13 -52v-82q0 -37 -13 -52.5t-54 -15.5h-64q-41 0 -53 15.5t-12 52.5z" />
<glyph unicode="&#xd0;" horiz-adv-x="837" d="M0 741v54q0 47 22.5 57t75.5 10h4v486q0 53 14.5 75.5t53.5 22.5h371q90 0 142 -38t77.5 -124t33 -224t7.5 -337q0 -236 -10.5 -378t-40 -219t-83 -101.5t-139.5 -24.5h-350q-47 0 -61.5 16.5t-14.5 75.5v582h-4q-53 0 -75.5 10t-22.5 57zM348 313q0 -20 2 -31.5 t10.5 -17.5t23.5 -7t44 -1q39 0 62.5 8t35 51t14.5 133.5t3 253.5q0 180 -2 279.5t-13.5 146t-36 54.5t-69.5 8q-47 0 -60.5 -10.5t-13.5 -55.5v-262h25q53 0 74.5 -10t21.5 -57v-54q0 -47 -21.5 -57t-74.5 -10h-25v-361z" />
<glyph unicode="&#xd1;" horiz-adv-x="847" d="M57 98v1252q0 57 14.5 76.5t61.5 19.5h98q39 0 53.5 -11.5t30.5 -56.5l183 -536q8 -20 13 -25.5t11 -5.5t8 8t2 33v498q0 51 14.5 73.5t53.5 22.5h113q35 0 56.5 -17.5t21.5 -80.5v-1250q0 -57 -14.5 -77.5t-61.5 -20.5h-101q-39 0 -53 10t-31 58l-182 538 q-6 20 -11 25.5t-11 5.5q-8 0 -10.5 -8t-2.5 -33v-500q0 -51 -13 -73.5t-52 -22.5h-113q-37 0 -57.5 16.5t-20.5 81.5zM168 1556v93q0 27 11.5 44t44.5 17h86q10 0 19 -2t17 -4l154 -47q14 -6 27 -6q8 0 8 14v10q0 16 11 25.5t24 9.5h53q35 0 45 -13.5t10 -43.5v-92 q0 -27 -10 -44.5t-45 -17.5h-86q-10 0 -19.5 2t-17.5 4l-154 47q-16 6 -26 7q-8 0 -8 -15v-10q0 -16 -10.5 -25.5t-24.5 -9.5h-53q-33 0 -44.5 13.5t-11.5 43.5z" />
<glyph unicode="&#xd2;" d="M37 725q0 162 5 297t38 232.5t103.5 151.5t201.5 54t202.5 -54t104.5 -151.5t38 -232.5t5 -297t-5 -298t-38 -235.5t-104.5 -155.5t-202.5 -56t-201.5 56t-103.5 155.5t-38 235.5t-5 298zM131 1681q0 29 31 29h191q16 0 24 -6t25 -29l96 -129q10 -12 10 -26 q0 -20 -22 -21h-135q-18 0 -26.5 4t-21.5 17l-149 127q-23 18 -23 34zM291 725q0 -143 2 -234.5t11 -143.5t27.5 -71.5t53.5 -19.5t54.5 19.5t28.5 71.5t11 143.5t2 234.5t-2 233.5t-11 141.5t-28.5 69.5t-54.5 18.5t-53.5 -18.5t-27.5 -69.5t-11 -141.5t-2 -233.5z" />
<glyph unicode="&#xd3;" d="M37 725q0 162 5 297t38 232.5t103.5 151.5t201.5 54t202.5 -54t104.5 -151.5t38 -232.5t5 -297t-5 -298t-38 -235.5t-104.5 -155.5t-202.5 -56t-201.5 56t-103.5 155.5t-38 235.5t-5 298zM262 1520q0 14 10 26l98 129q16 23 23.5 29t24.5 6h190q31 0 31 -29 q0 -18 -23 -34l-149 -127q-12 -12 -19.5 -16.5t-27.5 -4.5h-136q-23 0 -22 21zM291 725q0 -143 2 -234.5t11 -143.5t27.5 -71.5t53.5 -19.5t54.5 19.5t28.5 71.5t11 143.5t2 234.5t-2 233.5t-11 141.5t-28.5 69.5t-54.5 18.5t-53.5 -18.5t-27.5 -69.5t-11 -141.5t-2 -233.5z " />
<glyph unicode="&#xd4;" d="M37 725q0 162 5 297t38 232.5t103.5 151.5t201.5 54t202.5 -54t104.5 -151.5t38 -232.5t5 -297t-5 -298t-38 -235.5t-104.5 -155.5t-202.5 -56t-201.5 56t-103.5 155.5t-38 235.5t-5 298zM137 1516q0 6 4 18l74 141q10 20 21.5 27.5t37.5 7.5h224q27 0 37 -7t20 -28 l74 -141q2 -4 4 -9t2 -9q0 -16 -21 -17h-116q-16 0 -26.5 3t-23.5 20l-63 82l-61 -82q-12 -16 -23.5 -19.5t-26.5 -3.5h-116q-20 0 -21 17zM291 725q0 -143 2 -234.5t11 -143.5t27.5 -71.5t53.5 -19.5t54.5 19.5t28.5 71.5t11 143.5t2 234.5t-2 233.5t-11 141.5t-28.5 69.5 t-54.5 18.5t-53.5 -18.5t-27.5 -69.5t-11 -141.5t-2 -233.5z" />
<glyph unicode="&#xd5;" d="M37 725q0 162 5 297t38 232.5t103.5 151.5t201.5 54t202.5 -54t104.5 -151.5t38 -232.5t5 -297t-5 -298t-38 -235.5t-104.5 -155.5t-202.5 -56t-201.5 56t-103.5 155.5t-38 235.5t-5 298zM131 1556v93q0 27 11.5 44t44.5 17h86q10 0 19 -2t17 -4l154 -47q14 -6 27 -6 q8 0 8 14v10q0 16 11 25.5t24 9.5h53q35 0 45 -13.5t10 -43.5v-92q0 -27 -10 -44.5t-45 -17.5h-86q-10 0 -19.5 2t-17.5 4l-154 47q-16 6 -26 7q-8 0 -8 -15v-10q0 -16 -10.5 -25.5t-24.5 -9.5h-53q-33 0 -44.5 13.5t-11.5 43.5zM291 725q0 -143 2 -234.5t11 -143.5 t27.5 -71.5t53.5 -19.5t54.5 19.5t28.5 71.5t11 143.5t2 234.5t-2 233.5t-11 141.5t-28.5 69.5t-54.5 18.5t-53.5 -18.5t-27.5 -69.5t-11 -141.5t-2 -233.5z" />
<glyph unicode="&#xd6;" d="M37 725q0 162 5 297t38 232.5t103.5 151.5t201.5 54t202.5 -54t104.5 -151.5t38 -232.5t5 -297t-5 -298t-38 -235.5t-104.5 -155.5t-202.5 -56t-201.5 56t-103.5 155.5t-38 235.5t-5 298zM158 1567v82q0 37 12 52t53 15h64q41 0 54 -15t13 -52v-82q0 -37 -13 -52.5 t-54 -15.5h-64q-41 0 -53 15.5t-12 52.5zM291 725q0 -143 2 -234.5t11 -143.5t27.5 -71.5t53.5 -19.5t54.5 19.5t28.5 71.5t11 143.5t2 234.5t-2 233.5t-11 141.5t-28.5 69.5t-54.5 18.5t-53.5 -18.5t-27.5 -69.5t-11 -141.5t-2 -233.5zM420 1567v82q0 37 12 52t53 15h64 q41 0 54 -15t13 -52v-82q0 -37 -13 -52.5t-54 -15.5h-64q-41 0 -53 15.5t-12 52.5z" />
<glyph unicode="&#xd7;" horiz-adv-x="931" d="M37 498q0 20 26 47l203 203l-200 202q-12 12 -19.5 22.5t-7.5 24.5q0 27 37 62l78 78q39 39 63 39q20 0 45 -25l203 -205l205 205q25 25 45 25q25 0 63 -39l78 -78q37 -35 37 -62q0 -14 -7 -24t-20 -23l-202 -202l204 -203q27 -27 27 -47q0 -25 -39 -62l-78 -78 q-37 -37 -63 -36q-20 0 -45 24l-205 205l-203 -205q-25 -25 -45 -24q-27 0 -63 36l-78 78q-39 37 -39 62z" />
<glyph unicode="&#xd8;" d="M-4 10q-4 10 8 39l72 154q-29 100 -34 233t-5 289q0 162 5 297t38 232.5t103.5 151.5t201.5 54q86 0 143.5 -23.5t98.5 -64.5l18 39q12 23 20.5 29t32.5 6h43q23 0 35 -7t-2 -36l-78 -166q29 -96 34 -226t5 -286q0 -162 -5 -298t-38 -235.5t-104.5 -155.5t-202.5 -56 q-86 0 -145.5 24.5t-98.5 71.5l-20 -43q-10 -20 -18.5 -26.5t-24.5 -6.5h-47q-31 0 -35 10zM286 958.5q-1 -90.5 3 -233.5l2 -68l184 392q-10 82 -28.5 110.5t-61.5 28.5q-35 0 -55.5 -18.5t-31.5 -69.5t-12 -141.5zM297 401q6 -84 26.5 -114.5t61.5 -30.5q35 0 54.5 19.5 t28.5 71.5t11 143.5t2 234.5v63z" />
<glyph unicode="&#xd9;" horiz-adv-x="784" d="M43 401v949q0 55 16.5 75.5t59.5 20.5h114q41 0 53.5 -18.5t12.5 -71.5v-987q0 -59 21.5 -86t74.5 -27q47 0 68.5 26.5t21.5 88.5v985q0 53 13.5 71.5t56.5 18.5h119q43 0 55 -18.5t12 -71.5v-944q0 -88 -12 -167t-49 -137.5t-106.5 -93t-186.5 -34.5q-109 0 -175.5 28.5 t-104 82.5t-51 132t-13.5 178zM131 1681q0 29 31 29h191q16 0 24 -6t25 -29l96 -129q10 -12 10 -26q0 -20 -22 -21h-135q-18 0 -26.5 4t-21.5 17l-149 127q-23 18 -23 34z" />
<glyph unicode="&#xda;" horiz-adv-x="784" d="M43 401v949q0 55 16.5 75.5t59.5 20.5h114q41 0 53.5 -18.5t12.5 -71.5v-987q0 -59 21.5 -86t74.5 -27q47 0 68.5 26.5t21.5 88.5v985q0 53 13.5 71.5t56.5 18.5h119q43 0 55 -18.5t12 -71.5v-944q0 -88 -12 -167t-49 -137.5t-106.5 -93t-186.5 -34.5q-109 0 -175.5 28.5 t-104 82.5t-51 132t-13.5 178zM279 1520q0 14 10 26l98 129q16 23 23.5 29t24.5 6h190q31 0 31 -29q0 -18 -23 -34l-149 -127q-12 -12 -19.5 -16.5t-27.5 -4.5h-136q-23 0 -22 21z" />
<glyph unicode="&#xdb;" horiz-adv-x="784" d="M43 401v949q0 55 16.5 75.5t59.5 20.5h114q41 0 53.5 -18.5t12.5 -71.5v-987q0 -59 21.5 -86t74.5 -27q47 0 68.5 26.5t21.5 88.5v985q0 53 13.5 71.5t56.5 18.5h119q43 0 55 -18.5t12 -71.5v-944q0 -88 -12 -167t-49 -137.5t-106.5 -93t-186.5 -34.5q-109 0 -175.5 28.5 t-104 82.5t-51 132t-13.5 178zM145 1516q0 6 4 18l74 141q10 20 21.5 27.5t37.5 7.5h224q27 0 37 -7t20 -28l74 -141q2 -4 4 -9t2 -9q0 -16 -21 -17h-116q-16 0 -26.5 3t-23.5 20l-63 82l-61 -82q-12 -16 -23.5 -19.5t-26.5 -3.5h-116q-20 0 -21 17z" />
<glyph unicode="&#xdc;" horiz-adv-x="784" d="M43 401v949q0 55 16.5 75.5t59.5 20.5h114q41 0 53.5 -18.5t12.5 -71.5v-987q0 -59 21.5 -86t74.5 -27q47 0 68.5 26.5t21.5 88.5v985q0 53 13.5 71.5t56.5 18.5h119q43 0 55 -18.5t12 -71.5v-944q0 -88 -12 -167t-49 -137.5t-106.5 -93t-186.5 -34.5q-109 0 -175.5 28.5 t-104 82.5t-51 132t-13.5 178zM164 1567v82q0 37 12 52t53 15h64q41 0 54 -15t13 -52v-82q0 -37 -13 -52.5t-54 -15.5h-64q-41 0 -53 15.5t-12 52.5zM426 1567v82q0 37 12 52t53 15h64q41 0 54 -15t13 -52v-82q0 -37 -13 -52.5t-54 -15.5h-64q-41 0 -53 15.5t-12 52.5z" />
<glyph unicode="&#xdd;" horiz-adv-x="745" d="M4 1421.5q6 24.5 41 24.5h145q23 0 35.5 -9.5t22.5 -43.5l110 -469q4 -16 6.5 -20.5t8.5 -4.5t8 4t6 21l111 469q10 35 22 44t35 9h145q35 0 41.5 -24.5t-2.5 -51.5l-239 -817v-461q0 -57 -13.5 -74.5t-58.5 -17.5h-113q-43 0 -56 17.5t-13 74.5v461l-240 817 q-8 27 -2 51.5zM217 1520q0 14 10 26l98 129q16 23 23.5 29t24.5 6h190q31 0 31 -29q0 -18 -23 -34l-149 -127q-12 -12 -19.5 -16.5t-27.5 -4.5h-136q-23 0 -22 21z" />
<glyph unicode="&#xde;" horiz-adv-x="743" d="M57 92l2 1260q0 57 13.5 75.5t54.5 18.5h119q43 0 55 -17.5t12 -76.5v-135h146q137 0 207.5 -117t70.5 -346q0 -219 -62.5 -333t-180.5 -114h-183v-215q0 -57 -13 -74.5t-56 -17.5h-117q-43 0 -55.5 16.5t-12.5 75.5zM311 600q0 -23 8.5 -30t24.5 -7h72q16 0 28.5 6 t20.5 26.5t12 58.5t4 102q0 66 -4 106.5t-13 62t-22.5 29t-31.5 7.5h-64q-16 0 -25.5 -6.5t-9.5 -32.5v-322z" />
<glyph unicode="&#xdf;" horiz-adv-x="827" d="M57 98v1254q0 53 14.5 73.5t53.5 20.5h450q70 0 112 -28.5t64.5 -78t31 -116t8.5 -142.5q0 -137 -28 -212.5t-89 -114.5q66 -27 101.5 -119t35.5 -246q0 -84 -11.5 -154.5t-38 -123t-71.5 -82t-115 -29.5h-167q-23 0 -31 8t-8 35v158q0 27 8 41t31 14h36q66 0 86.5 37 t20.5 143q0 57 -6 94t-19.5 57.5t-33 27t-46.5 6.5l-12 -3q-23 0 -30 8.5t-7 35.5v159q0 27 7.5 40t29.5 13h10q59 0 76 34t17 124q0 51 -6.5 82t-18.5 47.5t-28.5 22.5t-37.5 6h-100q-23 0 -30 -8t-7 -35v-1049q0 -57 -13 -77.5t-54 -20.5h-117q-41 0 -54.5 20.5 t-13.5 77.5z" />
<glyph unicode="&#xe0;" horiz-adv-x="804" d="M6 33l176 1329q6 47 25.5 65.5t64.5 18.5h252q39 0 58.5 -19.5t25.5 -66.5l189 -1327q6 -33 -33 -33h-205q-16 0 -24.5 8t-12.5 31l-41 305q-4 23 -11 29t-26 6h-92q-16 0 -24.5 -6t-12.5 -29l-32 -309q-4 -23 -11.5 -29t-29.5 -6h-199q-39 0 -37 33zM149 1681 q0 29 31 29h191q16 0 24 -6t25 -29l96 -129q10 -12 10 -26q0 -20 -22 -21h-135q-18 0 -26.5 4t-21.5 17l-149 127q-23 18 -23 34zM342 659q0 -25 29 -24h53q33 0 31 24l-41 498q-2 33 -17 33q-16 0 -18 -35z" />
<glyph unicode="&#xe1;" horiz-adv-x="804" d="M6 33l176 1329q6 47 25.5 65.5t64.5 18.5h252q39 0 58.5 -19.5t25.5 -66.5l189 -1327q6 -33 -33 -33h-205q-16 0 -24.5 8t-12.5 31l-41 305q-4 23 -11 29t-26 6h-92q-16 0 -24.5 -6t-12.5 -29l-32 -309q-4 -23 -11.5 -29t-29.5 -6h-199q-39 0 -37 33zM273 1520 q0 14 10 26l98 129q16 23 23.5 29t24.5 6h190q31 0 31 -29q0 -18 -23 -34l-149 -127q-12 -12 -19.5 -16.5t-27.5 -4.5h-136q-23 0 -22 21zM342 659q0 -25 29 -24h53q33 0 31 24l-41 498q-2 33 -17 33q-16 0 -18 -35z" />
<glyph unicode="&#xe2;" horiz-adv-x="804" d="M6 33l176 1329q6 47 25.5 65.5t64.5 18.5h252q39 0 58.5 -19.5t25.5 -66.5l189 -1327q6 -33 -33 -33h-205q-16 0 -24.5 8t-12.5 31l-41 305q-4 23 -11 29t-26 6h-92q-16 0 -24.5 -6t-12.5 -29l-32 -309q-4 -23 -11.5 -29t-29.5 -6h-199q-39 0 -37 33zM155 1516q0 6 4 18 l74 141q10 20 21.5 27.5t37.5 7.5h224q27 0 37 -7t20 -28l74 -141q2 -4 4 -9t2 -9q0 -16 -21 -17h-116q-16 0 -26.5 3t-23.5 20l-63 82l-61 -82q-12 -16 -23.5 -19.5t-26.5 -3.5h-116q-20 0 -21 17zM342 659q0 -25 29 -24h53q33 0 31 24l-41 498q-2 33 -17 33q-16 0 -18 -35 z" />
<glyph unicode="&#xe3;" horiz-adv-x="804" d="M6 33l176 1329q6 47 25.5 65.5t64.5 18.5h252q39 0 58.5 -19.5t25.5 -66.5l189 -1327q6 -33 -33 -33h-205q-16 0 -24.5 8t-12.5 31l-41 305q-4 23 -11 29t-26 6h-92q-16 0 -24.5 -6t-12.5 -29l-32 -309q-4 -23 -11.5 -29t-29.5 -6h-199q-39 0 -37 33zM137 1556v93 q0 27 11.5 44t44.5 17h86q10 0 19 -2t17 -4l154 -47q14 -6 27 -6q8 0 8 14v10q0 16 11 25.5t24 9.5h53q35 0 45 -13.5t10 -43.5v-92q0 -27 -10 -44.5t-45 -17.5h-86q-10 0 -19.5 2t-17.5 4l-154 47q-16 6 -26 7q-8 0 -8 -15v-10q0 -16 -10.5 -25.5t-24.5 -9.5h-53 q-33 0 -44.5 13.5t-11.5 43.5zM342 659q0 -25 29 -24h53q33 0 31 24l-41 498q-2 33 -17 33q-16 0 -18 -35z" />
<glyph unicode="&#xe4;" horiz-adv-x="804" d="M6 33l176 1329q6 47 25.5 65.5t64.5 18.5h252q39 0 58.5 -19.5t25.5 -66.5l189 -1327q6 -33 -33 -33h-205q-16 0 -24.5 8t-12.5 31l-41 305q-4 23 -11 29t-26 6h-92q-16 0 -24.5 -6t-12.5 -29l-32 -309q-4 -23 -11.5 -29t-29.5 -6h-199q-39 0 -37 33zM175 1567v82 q0 37 12 52t53 15h64q41 0 54 -15t13 -52v-82q0 -37 -13 -52.5t-54 -15.5h-64q-41 0 -53 15.5t-12 52.5zM342 659q0 -25 29 -24h53q33 0 31 24l-41 498q-2 33 -17 33q-16 0 -18 -35zM437 1567v82q0 37 12 52t53 15h64q41 0 54 -15t13 -52v-82q0 -37 -13 -52.5t-54 -15.5h-64 q-41 0 -53 15.5t-12 52.5z" />
<glyph unicode="&#xe5;" horiz-adv-x="804" d="M6 33l176 1329q6 43 23.5 59.5t46.5 22.5q-12 16 -22.5 38.5t-10.5 57.5q0 82 49 134t123 52q76 0 124 -52t48 -136q0 -35 -7 -54.5t-24 -37.5q33 -4 51.5 -22.5t24.5 -63.5l189 -1327q6 -33 -33 -33h-205q-16 0 -24.5 8t-12.5 31l-41 305q-4 23 -11 29t-26 6h-92 q-16 0 -24.5 -6t-12.5 -29l-32 -309q-4 -23 -11.5 -29t-29.5 -6h-199q-39 0 -37 33zM324 1538q0 -37 18 -59.5t49 -22.5t50.5 22.5t19.5 57.5q0 37 -19.5 60.5t-50.5 23.5t-49 -20.5t-18 -61.5zM342 659q0 -25 29 -24h53q33 0 31 24l-41 498q-2 33 -17 33q-16 0 -18 -35z " />
<glyph unicode="&#xe6;" horiz-adv-x="1107" d="M6 33l287 1329q10 47 31.5 65.5t66.5 18.5h619q41 0 55 -16.5t14 -69.5v-80q0 -53 -14 -71.5t-55 -18.5h-213q-25 0 -32 -9.5t-7 -37.5v-203q0 -31 5 -38t34 -7h108q37 0 50.5 -14.5t13.5 -59.5v-110q0 -41 -14.5 -56.5t-49.5 -15.5h-108q-23 0 -31 -6t-8 -27v-303 q0 -27 8 -37t39 -10h213q45 0 61.5 -20.5t16.5 -73.5v-70q0 -49 -16.5 -70.5t-57.5 -21.5h-483q-16 0 -23.5 8t-7.5 31v305q0 23 -8 29t-25 6h-94q-16 0 -25.5 -6t-13.5 -29l-59 -309q-4 -23 -13.5 -29t-31.5 -6h-199q-39 0 -33 33zM395 659q-4 -25 25 -24h55q33 0 33 24 v498q0 33 -14 33t-21 -35z" />
<glyph unicode="&#xe7;" horiz-adv-x="628" d="M37 696q0 217 5 361.5t29.5 230.5t75 122t140.5 36h268q37 0 52.5 -17.5t15.5 -58.5v-98q0 -51 -14.5 -66.5t-57.5 -15.5h-166q-31 0 -48.5 -9.5t-26.5 -55.5t-11 -140t-2 -266q0 -170 3 -263.5t11 -137.5t24.5 -53t45.5 -9h170q39 0 54.5 -16.5t15.5 -57.5v-104 q0 -43 -15.5 -60.5t-50.5 -17.5h-123q10 -41 14.5 -66.5t4.5 -52.5q0 -82 -30 -130t-83 -48h-78q-49 0 -62.5 15.5t-13.5 70.5v49q0 39 16.5 52.5t67.5 13.5h45q29 0 29 33q0 10 -3 24t-9 39h-33q-82 0 -133 27.5t-79 104.5t-38 213t-10 351z" />
<glyph unicode="&#xe8;" horiz-adv-x="651" d="M57 96v1254q0 53 15.5 74.5t56.5 21.5h430q41 0 55.5 -16.5t14.5 -69.5v-80q0 -53 -14.5 -71.5t-55.5 -18.5h-213q-25 0 -32 -9.5t-7 -37.5v-203q0 -31 5 -38t34 -7h109q35 0 49 -14.5t14 -59.5v-110q0 -41 -14.5 -56.5t-48.5 -15.5h-109q-23 0 -31 -6t-8 -27v-303 q0 -27 8.5 -37t36.5 -10h215q45 0 61.5 -20.5t16.5 -73.5v-70q0 -49 -16.5 -70.5t-57.5 -21.5h-442q-43 0 -57.5 19.5t-14.5 76.5zM92 1681q0 29 31 29h191q16 0 24 -6t25 -29l96 -129q10 -12 10 -26q0 -20 -22 -21h-135q-18 0 -26.5 4t-21.5 17l-149 127q-23 18 -23 34z " />
<glyph unicode="&#xe9;" horiz-adv-x="651" d="M57 96v1254q0 53 15.5 74.5t56.5 21.5h430q41 0 55.5 -16.5t14.5 -69.5v-80q0 -53 -14.5 -71.5t-55.5 -18.5h-213q-25 0 -32 -9.5t-7 -37.5v-203q0 -31 5 -38t34 -7h109q35 0 49 -14.5t14 -59.5v-110q0 -41 -14.5 -56.5t-48.5 -15.5h-109q-23 0 -31 -6t-8 -27v-303 q0 -27 8.5 -37t36.5 -10h215q45 0 61.5 -20.5t16.5 -73.5v-70q0 -49 -16.5 -70.5t-57.5 -21.5h-442q-43 0 -57.5 19.5t-14.5 76.5zM205 1520q0 14 10 26l98 129q16 23 23.5 29t24.5 6h190q31 0 31 -29q0 -18 -23 -34l-149 -127q-12 -12 -19.5 -16.5t-27.5 -4.5h-136 q-23 0 -22 21z" />
<glyph unicode="&#xea;" horiz-adv-x="651" d="M57 96v1254q0 53 15.5 74.5t56.5 21.5h430q41 0 55.5 -16.5t14.5 -69.5v-80q0 -53 -14.5 -71.5t-55.5 -18.5h-213q-25 0 -32 -9.5t-7 -37.5v-203q0 -31 5 -38t34 -7h109q35 0 49 -14.5t14 -59.5v-110q0 -41 -14.5 -56.5t-48.5 -15.5h-109q-23 0 -31 -6t-8 -27v-303 q0 -27 8.5 -37t36.5 -10h215q45 0 61.5 -20.5t16.5 -73.5v-70q0 -49 -16.5 -70.5t-57.5 -21.5h-442q-43 0 -57.5 19.5t-14.5 76.5zM71 1516q0 6 4 18l74 141q10 20 21.5 27.5t37.5 7.5h224q27 0 37 -7t20 -28l74 -141q2 -4 4 -9t2 -9q0 -16 -21 -17h-116q-16 0 -26.5 3 t-23.5 20l-63 82l-61 -82q-12 -16 -23.5 -19.5t-26.5 -3.5h-116q-20 0 -21 17z" />
<glyph unicode="&#xeb;" horiz-adv-x="651" d="M57 96v1254q0 53 15.5 74.5t56.5 21.5h430q41 0 55.5 -16.5t14.5 -69.5v-80q0 -53 -14.5 -71.5t-55.5 -18.5h-213q-25 0 -32 -9.5t-7 -37.5v-203q0 -31 5 -38t34 -7h109q35 0 49 -14.5t14 -59.5v-110q0 -41 -14.5 -56.5t-48.5 -15.5h-109q-23 0 -31 -6t-8 -27v-303 q0 -27 8.5 -37t36.5 -10h215q45 0 61.5 -20.5t16.5 -73.5v-70q0 -49 -16.5 -70.5t-57.5 -21.5h-442q-43 0 -57.5 19.5t-14.5 76.5zM109 1567v82q0 37 12 52t53 15h64q41 0 54 -15t13 -52v-82q0 -37 -13 -52.5t-54 -15.5h-64q-41 0 -53 15.5t-12 52.5zM371 1567v82 q0 37 12 52t53 15h64q41 0 54 -15t13 -52v-82q0 -37 -13 -52.5t-54 -15.5h-64q-41 0 -53 15.5t-12 52.5z" />
<glyph unicode="&#xec;" horiz-adv-x="368" d="M-39 1681q0 29 31 29h191q16 0 24 -6t25 -29l96 -129q10 -12 10 -26q0 -20 -22 -21h-135q-18 0 -26.5 4t-21.5 17l-149 127q-23 18 -23 34zM59 96v1252q0 57 14.5 77.5t55.5 20.5h119q37 0 51 -21.5t14 -76.5v-1258q0 -59 -15 -74.5t-56 -15.5h-107q-47 0 -61.5 18.5 t-14.5 77.5z" />
<glyph unicode="&#xed;" horiz-adv-x="368" d="M10 1520q0 14 10 26l98 129q16 23 23.5 29t24.5 6h190q31 0 31 -29q0 -18 -23 -34l-149 -127q-12 -12 -19.5 -16.5t-27.5 -4.5h-136q-23 0 -22 21zM57 96v1252q0 57 14.5 77.5t55.5 20.5h119q37 0 51 -21.5t14 -76.5v-1258q0 -59 -15 -74.5t-56 -15.5h-107 q-47 0 -61.5 18.5t-14.5 77.5z" />
<glyph unicode="&#xee;" horiz-adv-x="368" d="M-64 1516q0 6 4 18l74 141q10 20 21.5 27.5t37.5 7.5h224q27 0 37 -7t20 -28l74 -141q2 -4 4 -9t2 -9q0 -16 -21 -17h-116q-16 0 -26.5 3t-23.5 20l-63 82l-61 -82q-12 -16 -23.5 -19.5t-26.5 -3.5h-116q-20 0 -21 17zM57 96v1252q0 57 14.5 77.5t55.5 20.5h119 q37 0 51 -21.5t14 -76.5v-1258q0 -59 -15 -74.5t-56 -15.5h-107q-47 0 -61.5 18.5t-14.5 77.5z" />
<glyph unicode="&#xef;" horiz-adv-x="368" d="M-40 1567v82q0 37 12 52t53 15h64q41 0 54 -15t13 -52v-82q0 -37 -13 -52.5t-54 -15.5h-64q-41 0 -53 15.5t-12 52.5zM57 96v1252q0 57 14.5 77.5t55.5 20.5h119q37 0 51 -21.5t14 -76.5v-1258q0 -59 -15 -74.5t-56 -15.5h-107q-47 0 -61.5 18.5t-14.5 77.5zM222 1567v82 q0 37 12 52t53 15h64q41 0 54 -15t13 -52v-82q0 -37 -13 -52.5t-54 -15.5h-64q-41 0 -53 15.5t-12 52.5z" />
<glyph unicode="&#xf0;" horiz-adv-x="837" d="M0 741v54q0 47 22.5 57t75.5 10h4v486q0 53 14.5 75.5t53.5 22.5h371q90 0 142 -38t77.5 -124t33 -224t7.5 -337q0 -236 -10.5 -378t-40 -219t-83 -101.5t-139.5 -24.5h-350q-47 0 -61.5 16.5t-14.5 75.5v582h-4q-53 0 -75.5 10t-22.5 57zM348 313q0 -20 2 -31.5 t10.5 -17.5t23.5 -7t44 -1q39 0 62.5 8t35 51t14.5 133.5t3 253.5q0 180 -2 279.5t-13.5 146t-36 54.5t-69.5 8q-47 0 -60.5 -10.5t-13.5 -55.5v-262h25q53 0 74.5 -10t21.5 -57v-54q0 -47 -21.5 -57t-74.5 -10h-25v-361z" />
<glyph unicode="&#xf1;" horiz-adv-x="847" d="M57 98v1252q0 57 14.5 76.5t61.5 19.5h98q39 0 53.5 -11.5t30.5 -56.5l183 -536q8 -20 13 -25.5t11 -5.5t8 8t2 33v498q0 51 14.5 73.5t53.5 22.5h113q35 0 56.5 -17.5t21.5 -80.5v-1250q0 -57 -14.5 -77.5t-61.5 -20.5h-101q-39 0 -53 10t-31 58l-182 538 q-6 20 -11 25.5t-11 5.5q-8 0 -10.5 -8t-2.5 -33v-500q0 -51 -13 -73.5t-52 -22.5h-113q-37 0 -57.5 16.5t-20.5 81.5zM168 1556v93q0 27 11.5 44t44.5 17h86q10 0 19 -2t17 -4l154 -47q14 -6 27 -6q8 0 8 14v10q0 16 11 25.5t24 9.5h53q35 0 45 -13.5t10 -43.5v-92 q0 -27 -10 -44.5t-45 -17.5h-86q-10 0 -19.5 2t-17.5 4l-154 47q-16 6 -26 7q-8 0 -8 -15v-10q0 -16 -10.5 -25.5t-24.5 -9.5h-53q-33 0 -44.5 13.5t-11.5 43.5z" />
<glyph unicode="&#xf2;" d="M37 725q0 162 5 297t38 232.5t103.5 151.5t201.5 54t202.5 -54t104.5 -151.5t38 -232.5t5 -297t-5 -298t-38 -235.5t-104.5 -155.5t-202.5 -56t-201.5 56t-103.5 155.5t-38 235.5t-5 298zM131 1681q0 29 31 29h191q16 0 24 -6t25 -29l96 -129q10 -12 10 -26 q0 -20 -22 -21h-135q-18 0 -26.5 4t-21.5 17l-149 127q-23 18 -23 34zM291 725q0 -143 2 -234.5t11 -143.5t27.5 -71.5t53.5 -19.5t54.5 19.5t28.5 71.5t11 143.5t2 234.5t-2 233.5t-11 141.5t-28.5 69.5t-54.5 18.5t-53.5 -18.5t-27.5 -69.5t-11 -141.5t-2 -233.5z" />
<glyph unicode="&#xf3;" d="M37 725q0 162 5 297t38 232.5t103.5 151.5t201.5 54t202.5 -54t104.5 -151.5t38 -232.5t5 -297t-5 -298t-38 -235.5t-104.5 -155.5t-202.5 -56t-201.5 56t-103.5 155.5t-38 235.5t-5 298zM262 1520q0 14 10 26l98 129q16 23 23.5 29t24.5 6h190q31 0 31 -29 q0 -18 -23 -34l-149 -127q-12 -12 -19.5 -16.5t-27.5 -4.5h-136q-23 0 -22 21zM291 725q0 -143 2 -234.5t11 -143.5t27.5 -71.5t53.5 -19.5t54.5 19.5t28.5 71.5t11 143.5t2 234.5t-2 233.5t-11 141.5t-28.5 69.5t-54.5 18.5t-53.5 -18.5t-27.5 -69.5t-11 -141.5t-2 -233.5z " />
<glyph unicode="&#xf4;" d="M37 725q0 162 5 297t38 232.5t103.5 151.5t201.5 54t202.5 -54t104.5 -151.5t38 -232.5t5 -297t-5 -298t-38 -235.5t-104.5 -155.5t-202.5 -56t-201.5 56t-103.5 155.5t-38 235.5t-5 298zM137 1516q0 6 4 18l74 141q10 20 21.5 27.5t37.5 7.5h224q27 0 37 -7t20 -28 l74 -141q2 -4 4 -9t2 -9q0 -16 -21 -17h-116q-16 0 -26.5 3t-23.5 20l-63 82l-61 -82q-12 -16 -23.5 -19.5t-26.5 -3.5h-116q-20 0 -21 17zM291 725q0 -143 2 -234.5t11 -143.5t27.5 -71.5t53.5 -19.5t54.5 19.5t28.5 71.5t11 143.5t2 234.5t-2 233.5t-11 141.5t-28.5 69.5 t-54.5 18.5t-53.5 -18.5t-27.5 -69.5t-11 -141.5t-2 -233.5z" />
<glyph unicode="&#xf5;" d="M37 725q0 162 5 297t38 232.5t103.5 151.5t201.5 54t202.5 -54t104.5 -151.5t38 -232.5t5 -297t-5 -298t-38 -235.5t-104.5 -155.5t-202.5 -56t-201.5 56t-103.5 155.5t-38 235.5t-5 298zM131 1556v93q0 27 11.5 44t44.5 17h86q10 0 19 -2t17 -4l154 -47q14 -6 27 -6 q8 0 8 14v10q0 16 11 25.5t24 9.5h53q35 0 45 -13.5t10 -43.5v-92q0 -27 -10 -44.5t-45 -17.5h-86q-10 0 -19.5 2t-17.5 4l-154 47q-16 6 -26 7q-8 0 -8 -15v-10q0 -16 -10.5 -25.5t-24.5 -9.5h-53q-33 0 -44.5 13.5t-11.5 43.5zM291 725q0 -143 2 -234.5t11 -143.5 t27.5 -71.5t53.5 -19.5t54.5 19.5t28.5 71.5t11 143.5t2 234.5t-2 233.5t-11 141.5t-28.5 69.5t-54.5 18.5t-53.5 -18.5t-27.5 -69.5t-11 -141.5t-2 -233.5z" />
<glyph unicode="&#xf6;" d="M37 725q0 162 5 297t38 232.5t103.5 151.5t201.5 54t202.5 -54t104.5 -151.5t38 -232.5t5 -297t-5 -298t-38 -235.5t-104.5 -155.5t-202.5 -56t-201.5 56t-103.5 155.5t-38 235.5t-5 298zM158 1567v82q0 37 12 52t53 15h64q41 0 54 -15t13 -52v-82q0 -37 -13 -52.5 t-54 -15.5h-64q-41 0 -53 15.5t-12 52.5zM291 725q0 -143 2 -234.5t11 -143.5t27.5 -71.5t53.5 -19.5t54.5 19.5t28.5 71.5t11 143.5t2 234.5t-2 233.5t-11 141.5t-28.5 69.5t-54.5 18.5t-53.5 -18.5t-27.5 -69.5t-11 -141.5t-2 -233.5zM420 1567v82q0 37 12 52t53 15h64 q41 0 54 -15t13 -52v-82q0 -37 -13 -52.5t-54 -15.5h-64q-41 0 -53 15.5t-12 52.5z" />
<glyph unicode="&#xf7;" horiz-adv-x="931" d="M14 692v109q0 51 14.5 69.5t53.5 18.5h768q39 0 53.5 -18.5t14.5 -69.5v-109q0 -53 -18.5 -68.5t-51.5 -15.5h-764q-33 0 -51.5 15.5t-18.5 68.5zM326 381v65q0 57 11 82t60 25h131q49 0 60.5 -24.5t11.5 -82.5v-65q0 -57 -11 -82t-61 -25h-131q-49 0 -60 25t-11 82z M326 1051v65q0 57 11 81t60 24h131q49 0 60.5 -23.5t11.5 -81.5v-65q0 -57 -11 -82t-61 -25h-131q-49 0 -60 24.5t-11 82.5z" />
<glyph unicode="&#xf8;" d="M-4 10q-4 10 8 39l72 154q-29 100 -34 233t-5 289q0 162 5 297t38 232.5t103.5 151.5t201.5 54q86 0 143.5 -23.5t98.5 -64.5l18 39q12 23 20.5 29t32.5 6h43q23 0 35 -7t-2 -36l-78 -166q29 -96 34 -226t5 -286q0 -162 -5 -298t-38 -235.5t-104.5 -155.5t-202.5 -56 q-86 0 -145.5 24.5t-98.5 71.5l-20 -43q-10 -20 -18.5 -26.5t-24.5 -6.5h-47q-31 0 -35 10zM286 958.5q-1 -90.5 3 -233.5l2 -68l184 392q-10 82 -28.5 110.5t-61.5 28.5q-35 0 -55.5 -18.5t-31.5 -69.5t-12 -141.5zM297 401q6 -84 26.5 -114.5t61.5 -30.5q35 0 54.5 19.5 t28.5 71.5t11 143.5t2 234.5v63z" />
<glyph unicode="&#xf9;" horiz-adv-x="784" d="M43 401v949q0 55 16.5 75.5t59.5 20.5h114q41 0 53.5 -18.5t12.5 -71.5v-987q0 -59 21.5 -86t74.5 -27q47 0 68.5 26.5t21.5 88.5v985q0 53 13.5 71.5t56.5 18.5h119q43 0 55 -18.5t12 -71.5v-944q0 -88 -12 -167t-49 -137.5t-106.5 -93t-186.5 -34.5q-109 0 -175.5 28.5 t-104 82.5t-51 132t-13.5 178zM131 1681q0 29 31 29h191q16 0 24 -6t25 -29l96 -129q10 -12 10 -26q0 -20 -22 -21h-135q-18 0 -26.5 4t-21.5 17l-149 127q-23 18 -23 34z" />
<glyph unicode="&#xfa;" horiz-adv-x="784" d="M43 401v949q0 55 16.5 75.5t59.5 20.5h114q41 0 53.5 -18.5t12.5 -71.5v-987q0 -59 21.5 -86t74.5 -27q47 0 68.5 26.5t21.5 88.5v985q0 53 13.5 71.5t56.5 18.5h119q43 0 55 -18.5t12 -71.5v-944q0 -88 -12 -167t-49 -137.5t-106.5 -93t-186.5 -34.5q-109 0 -175.5 28.5 t-104 82.5t-51 132t-13.5 178zM279 1520q0 14 10 26l98 129q16 23 23.5 29t24.5 6h190q31 0 31 -29q0 -18 -23 -34l-149 -127q-12 -12 -19.5 -16.5t-27.5 -4.5h-136q-23 0 -22 21z" />
<glyph unicode="&#xfb;" horiz-adv-x="784" d="M43 401v949q0 55 16.5 75.5t59.5 20.5h114q41 0 53.5 -18.5t12.5 -71.5v-987q0 -59 21.5 -86t74.5 -27q47 0 68.5 26.5t21.5 88.5v985q0 53 13.5 71.5t56.5 18.5h119q43 0 55 -18.5t12 -71.5v-944q0 -88 -12 -167t-49 -137.5t-106.5 -93t-186.5 -34.5q-109 0 -175.5 28.5 t-104 82.5t-51 132t-13.5 178zM145 1516q0 6 4 18l74 141q10 20 21.5 27.5t37.5 7.5h224q27 0 37 -7t20 -28l74 -141q2 -4 4 -9t2 -9q0 -16 -21 -17h-116q-16 0 -26.5 3t-23.5 20l-63 82l-61 -82q-12 -16 -23.5 -19.5t-26.5 -3.5h-116q-20 0 -21 17z" />
<glyph unicode="&#xfc;" horiz-adv-x="784" d="M43 401v949q0 55 16.5 75.5t59.5 20.5h114q41 0 53.5 -18.5t12.5 -71.5v-987q0 -59 21.5 -86t74.5 -27q47 0 68.5 26.5t21.5 88.5v985q0 53 13.5 71.5t56.5 18.5h119q43 0 55 -18.5t12 -71.5v-944q0 -88 -12 -167t-49 -137.5t-106.5 -93t-186.5 -34.5q-109 0 -175.5 28.5 t-104 82.5t-51 132t-13.5 178zM164 1567v82q0 37 12 52t53 15h64q41 0 54 -15t13 -52v-82q0 -37 -13 -52.5t-54 -15.5h-64q-41 0 -53 15.5t-12 52.5zM426 1567v82q0 37 12 52t53 15h64q41 0 54 -15t13 -52v-82q0 -37 -13 -52.5t-54 -15.5h-64q-41 0 -53 15.5t-12 52.5z" />
<glyph unicode="&#xfd;" horiz-adv-x="745" d="M4 1421.5q6 24.5 41 24.5h145q23 0 35.5 -9.5t22.5 -43.5l110 -469q4 -16 6.5 -20.5t8.5 -4.5t8 4t6 21l111 469q10 35 22 44t35 9h145q35 0 41.5 -24.5t-2.5 -51.5l-239 -817v-461q0 -57 -13.5 -74.5t-58.5 -17.5h-113q-43 0 -56 17.5t-13 74.5v461l-240 817 q-8 27 -2 51.5zM217 1520q0 14 10 26l98 129q16 23 23.5 29t24.5 6h190q31 0 31 -29q0 -18 -23 -34l-149 -127q-12 -12 -19.5 -16.5t-27.5 -4.5h-136q-23 0 -22 21z" />
<glyph unicode="&#xfe;" horiz-adv-x="743" d="M57 92l2 1260q0 57 13.5 75.5t54.5 18.5h119q43 0 55 -17.5t12 -76.5v-135h146q137 0 207.5 -117t70.5 -346q0 -219 -62.5 -333t-180.5 -114h-183v-215q0 -57 -13 -74.5t-56 -17.5h-117q-43 0 -55.5 16.5t-12.5 75.5zM311 600q0 -23 8.5 -30t24.5 -7h72q16 0 28.5 6 t20.5 26.5t12 58.5t4 102q0 66 -4 106.5t-13 62t-22.5 29t-31.5 7.5h-64q-16 0 -25.5 -6.5t-9.5 -32.5v-322z" />
<glyph unicode="&#xff;" horiz-adv-x="745" d="M4 1421.5q6 24.5 41 24.5h145q23 0 35.5 -9.5t22.5 -43.5l110 -469q4 -16 6.5 -20.5t8.5 -4.5t8 4t6 21l111 469q10 35 22 44t35 9h145q35 0 41.5 -24.5t-2.5 -51.5l-239 -817v-461q0 -57 -13.5 -74.5t-58.5 -17.5h-113q-43 0 -56 17.5t-13 74.5v461l-240 817 q-8 27 -2 51.5zM150 1567v82q0 37 12 52t53 15h64q41 0 54 -15t13 -52v-82q0 -37 -13 -52.5t-54 -15.5h-64q-41 0 -53 15.5t-12 52.5zM412 1567v82q0 37 12 52t53 15h64q41 0 54 -15t13 -52v-82q0 -37 -13 -52.5t-54 -15.5h-64q-41 0 -53 15.5t-12 52.5z" />
<glyph unicode="&#x152;" horiz-adv-x="1089" d="M27 725q0 162 5 297t37.5 232.5t103.5 151.5t202 54q92 0 157 -30q16 16 52 16h409q41 0 54.5 -16.5t13.5 -69.5v-80q0 -53 -13.5 -71.5t-54.5 -18.5h-213q-25 0 -32 -9.5t-7 -37.5v-203q0 -31 5.5 -38t33.5 -7h109q35 0 48 -14.5t13 -59.5v-110q0 -41 -13 -56.5 t-48 -15.5h-109q-23 0 -31 -6t-8 -27v-303q0 -27 8.5 -37t36.5 -10h215q43 0 60.5 -20.5t17.5 -73.5v-70q0 -49 -17.5 -70.5t-55.5 -21.5h-422q-31 0 -52 10q-33 -14 -71.5 -22t-85.5 -8q-131 0 -202 56t-103.5 155.5t-37.5 235.5t-5 298zM276 725q0 -143 2.5 -234.5 t12.5 -143.5t29.5 -71.5t54.5 -19.5t54.5 19.5t28.5 71.5t11 143.5t2 234.5t-2 233.5t-11 141.5t-28.5 69.5t-54.5 18.5t-54.5 -18.5t-29.5 -69.5t-12.5 -141.5t-2.5 -233.5z" />
<glyph unicode="&#x153;" horiz-adv-x="1089" d="M27 725q0 162 5 297t37.5 232.5t103.5 151.5t202 54q92 0 157 -30q16 16 52 16h409q41 0 54.5 -16.5t13.5 -69.5v-80q0 -53 -13.5 -71.5t-54.5 -18.5h-213q-25 0 -32 -9.5t-7 -37.5v-203q0 -31 5.5 -38t33.5 -7h109q35 0 48 -14.5t13 -59.5v-110q0 -41 -13 -56.5 t-48 -15.5h-109q-23 0 -31 -6t-8 -27v-303q0 -27 8.5 -37t36.5 -10h215q43 0 60.5 -20.5t17.5 -73.5v-70q0 -49 -17.5 -70.5t-55.5 -21.5h-422q-31 0 -52 10q-33 -14 -71.5 -22t-85.5 -8q-131 0 -202 56t-103.5 155.5t-37.5 235.5t-5 298zM276 725q0 -143 2.5 -234.5 t12.5 -143.5t29.5 -71.5t54.5 -19.5t54.5 19.5t28.5 71.5t11 143.5t2 234.5t-2 233.5t-11 141.5t-28.5 69.5t-54.5 18.5t-54.5 -18.5t-29.5 -69.5t-12.5 -141.5t-2.5 -233.5z" />
<glyph unicode="&#x178;" horiz-adv-x="745" d="M4 1421.5q6 24.5 41 24.5h145q23 0 35.5 -9.5t22.5 -43.5l110 -469q4 -16 6.5 -20.5t8.5 -4.5t8 4t6 21l111 469q10 35 22 44t35 9h145q35 0 41.5 -24.5t-2.5 -51.5l-239 -817v-461q0 -57 -13.5 -74.5t-58.5 -17.5h-113q-43 0 -56 17.5t-13 74.5v461l-240 817 q-8 27 -2 51.5zM150 1567v82q0 37 12 52t53 15h64q41 0 54 -15t13 -52v-82q0 -37 -13 -52.5t-54 -15.5h-64q-41 0 -53 15.5t-12 52.5zM412 1567v82q0 37 12 52t53 15h64q41 0 54 -15t13 -52v-82q0 -37 -13 -52.5t-54 -15.5h-64q-41 0 -53 15.5t-12 52.5z" />
<glyph unicode="&#x2c6;" horiz-adv-x="514" d="M8 1516q0 6 4 18l74 141q10 20 21.5 27.5t37.5 7.5h224q27 0 37 -7t20 -28l74 -141q2 -4 4 -9t2 -9q0 -16 -21 -17h-116q-16 0 -26.5 3t-23.5 20l-63 82l-61 -82q-12 -16 -23.5 -19.5t-26.5 -3.5h-116q-20 0 -21 17z" />
<glyph unicode="&#x2dc;" horiz-adv-x="530" d="M10 1556v93q0 27 11.5 44t44.5 17h86q10 0 19 -2t17 -4l154 -47q14 -6 27 -6q8 0 8 14v10q0 16 11 25.5t24 9.5h53q35 0 45 -13.5t10 -43.5v-92q0 -27 -10 -44.5t-45 -17.5h-86q-10 0 -19.5 2t-17.5 4l-154 47q-16 6 -26 7q-8 0 -8 -15v-10q0 -16 -10.5 -25.5t-24.5 -9.5 h-53q-33 0 -44.5 13.5t-11.5 43.5z" />
<glyph unicode="&#x2000;" horiz-adv-x="863" />
<glyph unicode="&#x2001;" horiz-adv-x="1726" />
<glyph unicode="&#x2002;" horiz-adv-x="863" />
<glyph unicode="&#x2003;" horiz-adv-x="1726" />
<glyph unicode="&#x2004;" horiz-adv-x="575" />
<glyph unicode="&#x2005;" horiz-adv-x="431" />
<glyph unicode="&#x2006;" horiz-adv-x="287" />
<glyph unicode="&#x2007;" horiz-adv-x="287" />
<glyph unicode="&#x2008;" horiz-adv-x="215" />
<glyph unicode="&#x2009;" horiz-adv-x="345" />
<glyph unicode="&#x200a;" horiz-adv-x="95" />
<glyph unicode="&#x2010;" horiz-adv-x="456" d="M23 711v108q0 53 13 70.5t54 17.5h277q41 0 55 -17.5t14 -70.5v-108q0 -53 -14 -70.5t-55 -17.5h-277q-41 0 -54 17t-13 71z" />
<glyph unicode="&#x2011;" horiz-adv-x="456" d="M23 711v108q0 53 13 70.5t54 17.5h277q41 0 55 -17.5t14 -70.5v-108q0 -53 -14 -70.5t-55 -17.5h-277q-41 0 -54 17t-13 71z" />
<glyph unicode="&#x2012;" horiz-adv-x="456" d="M23 711v108q0 53 13 70.5t54 17.5h277q41 0 55 -17.5t14 -70.5v-108q0 -53 -14 -70.5t-55 -17.5h-277q-41 0 -54 17t-13 71z" />
<glyph unicode="&#x2013;" horiz-adv-x="712" d="M23 682v129q0 53 10 74.5t55 21.5h537q45 0 56 -21.5t11 -74.5v-129q0 -53 -11 -74.5t-56 -21.5h-537q-45 0 -55 21.5t-10 74.5z" />
<glyph unicode="&#x2014;" horiz-adv-x="962" d="M25 682v129q0 53 10 74.5t55 21.5h780q47 0 57.5 -21.5t10.5 -74.5v-129q0 -53 -10 -74.5t-58 -21.5h-780q-45 0 -55 21.5t-10 74.5z" />
<glyph unicode="&#x2018;" horiz-adv-x="245" d="M8 1075v88q0 29 2 44.5t6 31.5l56 166q12 41 47 41h78q20 0 26 -6t-4 -35l-43 -125q-8 -16 -5 -27.5t15 -11.5h15q23 0 29 -15.5t6 -64.5v-80q0 -53 -15.5 -74.5t-56.5 -21.5h-88q-37 0 -52.5 20.5t-15.5 69.5z" />
<glyph unicode="&#x2019;" horiz-adv-x="245" d="M8 1270v80q0 53 15.5 74.5t56.5 21.5h90q37 0 51.5 -20.5t14.5 -69.5v-88q0 -29 -2.5 -44.5t-6.5 -31.5l-53 -166q-16 -41 -49 -41h-78q-18 0 -24.5 7t4.5 34l43 125q6 16 4 27.5t-15 11.5h-16q-23 0 -29 15.5t-6 64.5z" />
<glyph unicode="&#x201a;" horiz-adv-x="253" d="M12 80v80q0 53 16.5 74.5t55.5 21.5h90q37 0 51.5 -20.5t14.5 -69.5v-88q0 -29 -2 -44.5t-7 -31.5l-51 -164q-10 -41 -47 -41h-82q-18 0 -24.5 7.5t4.5 33.5l45 123q4 12 3 25.5t-13 13.5h-17q-20 0 -28.5 15.5t-8.5 64.5z" />
<glyph unicode="&#x201c;" horiz-adv-x="546" d="M12 1075v88q0 29 2 44.5t9 31.5l53 166q12 41 47 41h78q20 0 26 -6t-4 -35l-43 -125q-14 -39 10 -39h17q20 0 26.5 -15.5t6.5 -64.5v-80q0 -53 -14.5 -74.5t-55.5 -21.5h-90q-37 0 -52.5 20.5t-15.5 69.5zM305 1075v88q0 29 2 44.5t6 31.5l54 166q12 41 47 41h80 q20 0 26 -7t-4 -34l-45 -125q-6 -12 -5 -25.5t15 -13.5h15q23 0 29.5 -15.5t6.5 -64.5v-80q0 -53 -15 -74.5t-56 -21.5h-88q-37 0 -52.5 20.5t-15.5 69.5z" />
<glyph unicode="&#x201d;" horiz-adv-x="546" d="M12 1270v80q0 53 16.5 74.5t55.5 21.5h90q37 0 51.5 -20.5t14.5 -69.5v-88q0 -29 -2 -44.5t-7 -31.5l-51 -166q-12 -41 -47 -41h-82q-18 0 -24.5 8t4.5 33l45 125q4 12 3 25.5t-13 13.5h-17q-20 0 -28.5 15.5t-8.5 64.5zM305 1270v80q0 53 15.5 74.5t56.5 21.5h88 q39 0 53 -20.5t14 -69.5v-88q0 -29 -2 -44.5t-6 -31.5l-53 -166q-16 -41 -49 -41h-78q-18 0 -24.5 7t4.5 34l43 125q6 16 4 27.5t-15 11.5h-16q-23 0 -29 15.5t-6 64.5z" />
<glyph unicode="&#x201e;" horiz-adv-x="546" d="M12 80v80q0 53 16.5 74.5t55.5 21.5h90q37 0 51.5 -20.5t14.5 -69.5v-88q0 -29 -2 -44.5t-7 -31.5l-51 -164q-10 -41 -47 -41h-82q-18 0 -24.5 7.5t4.5 33.5l45 123q4 12 3 25.5t-13 13.5h-17q-20 0 -28.5 15.5t-8.5 64.5zM305 80v80q0 53 15.5 74.5t56.5 21.5h88 q39 0 53 -20.5t14 -69.5v-88q0 -29 -2 -44.5t-6 -31.5l-53 -164q-14 -41 -49 -41h-78q-18 0 -24.5 6.5t4.5 34.5l43 123q14 39 -11 39h-16q-23 0 -29 15.5t-6 64.5z" />
<glyph unicode="&#x2022;" horiz-adv-x="409" d="M23 672v205q0 76 18 100t82 24h164q63 0 81.5 -24.5t18.5 -99.5v-205q0 -39 -4 -62.5t-14.5 -37t-31 -18.5t-50.5 -5h-164q-31 0 -51.5 5t-30.5 18.5t-14 37t-4 62.5z" />
<glyph unicode="&#x2026;" horiz-adv-x="950" d="M37 98v60q0 53 10 75.5t57 22.5h121q47 0 57.5 -22.5t10.5 -75.5v-60q0 -53 -10.5 -75.5t-57.5 -22.5h-121q-47 0 -57 22.5t-10 75.5zM346 98v60q0 53 10.5 75.5t57.5 22.5h121q47 0 57 -22.5t10 -75.5v-60q0 -53 -10 -75.5t-57 -22.5h-121q-47 0 -57.5 22.5t-10.5 75.5z M657 98v60q0 53 10.5 75.5t55.5 22.5h123q45 0 55 -22.5t10 -75.5v-60q0 -53 -10 -75.5t-55 -22.5h-123q-45 0 -55.5 22.5t-10.5 75.5z" />
<glyph unicode="&#x202f;" horiz-adv-x="345" />
<glyph unicode="&#x2039;" horiz-adv-x="217" d="M10 555v279q0 41 5 55t24 29l133 96q18 16 26.5 8t8.5 -27v-145q0 -25 -4 -37t-13 -25l-69 -100l63 -88q12 -20 17.5 -28.5t5.5 -26.5v-156q0 -23 -9.5 -23.5t-19.5 3.5l-133 94q-35 29 -35 92z" />
<glyph unicode="&#x203a;" horiz-adv-x="217" d="M10 389v156q0 18 4 26.5t19 28.5l63 88l-69 100q-10 12 -13.5 24.5t-3.5 37.5v145q0 18 8.5 26.5t26.5 -7.5l133 -96q16 -14 22.5 -29t6.5 -55v-279q0 -63 -35 -92l-133 -94q-10 -4 -19.5 -3t-9.5 23z" />
<glyph unicode="&#x205f;" horiz-adv-x="431" />
<glyph unicode="&#x20ac;" horiz-adv-x="903" d="M20 827l25 101q4 16 11 23t24 7h61q23 145 72 241.5t114.5 154t141.5 81t149 23.5q61 0 124 -14t92 -23q43 -12 43 -35q0 -10 -4.5 -29.5t-10.5 -37.5l-31 -92q-6 -23 -12 -35t-24 -12q-27 0 -64 15t-98 15q-43 0 -81 -11t-67.5 -40t-50 -77t-33.5 -124h291q53 0 45 -28 l-26 -105q-4 -16 -9.5 -22t-31.5 -6h-279q-2 -16 -2 -36v-42v-44.5t2 -43.5h215q55 0 45 -29l-24 -104q-4 -16 -9.5 -21.5t-31.5 -5.5h-178q10 -141 57 -194.5t125 -53.5q43 0 74.5 4t55 10.5t42 10.5t37.5 4q45 0 45 -55v-95q0 -29 -4 -53t-29 -35q-35 -14 -99.5 -24 t-142.5 -10q-66 0 -134 19t-127.5 73.5t-104.5 149.5t-62 249h-78q-23 0 -35 6t-5 23l24 100q4 16 8 23.5t27 7.5h45q-2 14 -2 32.5v41.5v47t2 45h-66q-23 0 -35 7t-6 23z" />
<glyph unicode="&#x2122;" horiz-adv-x="655" d="M10 1362v84h221v-84h-75v-371h-72v371h-74zM287 987l35 459h86l61 -320q0 14 8 52q6 33 17.5 95t33.5 173h86l29 -459h-65l-17 326l-65 -326h-64q-23 111 -35 174.5t-18 95.5q-8 37 -8 52l-19 -322h-65z" />
<glyph unicode="&#x25fc;" horiz-adv-x="1443" d="M0 0v1444h1444v-1444h-1444z" />
<glyph unicode="&#xfb01;" horiz-adv-x="991" d="M57 90v1256q0 59 14.5 79.5t55.5 20.5h412q43 0 59 -20.5t16 -73.5v-76q0 -49 -14 -67.5t-51 -18.5h-201q-27 0 -33 -10.5t-6 -49.5v-196q0 -23 6.5 -31t22.5 -8h121q41 0 53 -17.5t12 -68.5v-76q0 -53 -13 -73.5t-54 -20.5h-109q-27 0 -33 -10.5t-6 -44.5v-494 q0 -51 -13 -70.5t-48 -19.5h-123q-41 0 -54.5 18.5t-13.5 71.5zM680 96v1252q0 57 14.5 77.5t55.5 20.5h119q37 0 51 -21.5t14 -76.5v-1258q0 -59 -15 -74.5t-56 -15.5h-107q-47 0 -61.5 18.5t-14.5 77.5z" />
<glyph unicode="&#xfb02;" horiz-adv-x="1224" d="M57 90v1256q0 59 14.5 79.5t55.5 20.5h412q43 0 59 -20.5t16 -73.5v-76q0 -49 -14 -67.5t-51 -18.5h-201q-27 0 -33 -10.5t-6 -49.5v-196q0 -23 6.5 -31t22.5 -8h121q41 0 53 -17.5t12 -68.5v-76q0 -53 -13 -73.5t-54 -20.5h-109q-27 0 -33 -10.5t-6 -44.5v-494 q0 -51 -13 -70.5t-48 -19.5h-123q-41 0 -54.5 18.5t-13.5 71.5zM680 96v1256q0 51 15.5 72.5t54.5 21.5h115q43 0 56 -20.5t13 -73.5v-1051q0 -27 9.5 -36t25.5 -9h176q41 0 57.5 -19.5t16.5 -72.5v-72q0 -49 -19.5 -70.5t-60.5 -21.5h-389q-43 0 -56.5 18.5t-13.5 77.5z " />
</font>
</defs>
</svg>
